<svg width="19" height="19" viewBox="0 0 19 19" fill="none" xmlns="http://www.w3.org/2000/svg">
<path d="M9.49995 5.25V11.2M9.49995 11.2L12.05 8.65M9.49995 11.2L6.94995 8.65" stroke="#F77860" stroke-width="1.5" stroke-linecap="round" stroke-linejoin="round"/>
<path d="M12.8999 13.75H6.09985" stroke="#F77860" stroke-width="1.5" stroke-linecap="round"/>
<path d="M1 9.5C1 5.4931 1 3.48965 2.2444 2.2444C3.4905 1 5.4931 1 9.5 1C13.5069 1 15.5104 1 16.7548 2.2444C18 3.4905 18 5.4931 18 9.5C18 13.5069 18 15.5104 16.7548 16.7548C15.5112 18 13.5069 18 9.5 18C5.4931 18 3.48965 18 2.2444 16.7548C1 15.5112 1 13.5069 1 9.5Z" stroke="#F77860" stroke-width="1.5"/>
</svg>
