<svg id="layer" xmlns="http://www.w3.org/2000/svg" viewBox="0 0 652 652"><defs><style>.cls-1{fill:#fff;}.cls-2{fill:#e2011f;}.cls-3{fill:#040002;}</style></defs><path class="cls-1" d="M60.2,477.4H70.9c4.4,0,7.6,1.6,9.3,5.3,1.4,2.9,1.6,9.9,1.6,11,0,7.4-.7,11.7-2.1,14-1.9,3-5.4,4.5-11.4,4.5h-8m4.4-4h4.2c6.1,0,8.4-2.3,8.4-10.4v-7c0-7-2.2-9.6-6.8-9.6H64.7Z"/><polyline class="cls-1" points="89.5 512.1 89.5 477.4 107.4 477.4 107.4 481.2 93.9 481.2 93.9 492.4 106.4 492.4 106.4 496.2 93.9 496.2 93.9 508.2 107.7 508.2 107.7 512.1"/><path class="cls-1" d="M114.1,512.1V477.4h10.3c4.7,0,9.7,1.7,9.7,9.9,0,7.9-6.1,9.5-9.7,9.5h-5.8v15.3m-.1-19.2h4.9c1.8,0,6.2-.5,6.2-5.9s-4-5.8-4.9-5.8h-6.1v11.7Z"/><path class="cls-1" d="M145.7,477.4h5.6l11.3,34.7h-5l-2.5-8.3H141.7l-2.6,8.3h-4.5m13.8-30.7h-.1l-5.4,18.5H154Z"/><path class="cls-1" d="M171.6,496.1V512h-4.4V477.3h12c6.2,0,8.3,4.3,8.3,8.6,0,4.1-2.2,7.2-6.3,7.9v.1c4,.6,5.4,2,5.7,8.9a46.54,46.54,0,0,0,1.2,9.1h-4.6c-1.3-2.4-1-6.9-1.4-11.5-.3-4.2-3.8-4.4-5.2-4.4m-5.3-3.7h6.6c3.2,0,4.7-2.7,4.7-5.8,0-2.5-1.2-5.3-4.7-5.3h-6.7v11.1Z"/><polyline class="cls-1" points="213.4 477.4 213.4 481.2 204.3 481.2 204.3 512.1 199.9 512.1 199.9 481.2 190.7 481.2 190.7 477.4"/><polyline class="cls-1" points="222.2 512.1 218 512.1 218 477.4 225.2 477.4 234 506.5 234 506.5 242.9 477.4 250.2 477.4 250.2 512.1 245.8 512.1 245.8 481.2 245.7 481.2 236 512.1 231.8 512.1 222.3 481.2 222.2 481.2"/><polyline class="cls-1" points="258 512.1 258 477.4 275.9 477.4 275.9 481.2 262.4 481.2 262.4 492.4 274.9 492.4 274.9 496.2 262.4 496.2 262.4 508.2 276.2 508.2 276.2 512.1"/><polyline class="cls-1" points="306.1 477.4 306.1 512.1 300 512.1 286.3 482 286.2 482 286.2 512.1 282.3 512.1 282.3 477.4 288.6 477.4 302.1 507.1 302.2 507.1 302.2 477.4"/><polyline class="cls-1" points="333.6 477.4 333.6 481.2 324.4 481.2 324.4 512.1 320 512.1 320 481.2 310.9 481.2 310.9 477.4"/><path class="cls-1" d="M348.7,499.4V488c0-6.9,3.6-11.3,10.9-11.3s10.9,4.4,10.9,11.3v11.4c0,9.6-3.6,13.4-10.9,13.4s-10.9-3.8-10.9-13.4m17.3.2V487.9c0-7.3-5-7.5-6.4-7.5s-6.4.2-6.4,7.5v11.7c0,7.6,2.2,9.5,6.4,9.5s6.4-2,6.4-9.5"/><polyline class="cls-1" points="377.9 512.1 377.9 477.4 395.1 477.4 395.1 481.2 382.3 481.2 382.3 492.4 394.4 492.4 394.4 496.2 382.3 496.2 382.3 512.1"/><path class="cls-1" d="M425.5,486.9c0-2-.1-3.9-1-5s-3-1.5-3.9-1.5c-3.7,0-5.1,2.2-5.3,2.7s-1,1.2-1,7.2v9.3c0,8.5,2.8,9.5,6.2,9.5,1.3,0,5.4-.5,5.5-7.3h4.6c.2,11-7.5,11-9.8,11-4.3,0-11-.3-11-13.8v-9.8c0-9.8,4.3-12.6,11.2-12.6s9.5,3.6,9.1,10.3"/><path class="cls-1" d="M436.8,477.4h4.4v22.2c0,7.6,2.3,9.5,6.5,9.5s6.5-1.9,6.5-9.5V477.4h4.4v22c0,9.6-3.6,13.4-10.9,13.4s-10.9-3.8-10.9-13.4"/><polyline class="cls-1" points="466.3 512.1 466.3 477.4 470.7 477.4 470.7 508.2 483.5 508.2 483.5 512.1"/><polyline class="cls-1" points="504.2 477.4 504.2 481.2 495.1 481.2 495.1 512.1 490.7 512.1 490.7 481.2 481.5 481.2 481.5 477.4"/><path class="cls-1" d="M508.6,477.4H513v22.2c0,7.6,2.3,9.5,6.5,9.5s6.5-1.9,6.5-9.5V477.4h4.4v22c0,9.6-3.6,13.4-10.9,13.4s-10.9-3.8-10.9-13.4"/><path class="cls-1" d="M542.5,496.1v16h-4.4V477.4h12c6.2,0,8.3,4.3,8.3,8.6,0,4.1-2.3,7.2-6.3,7.9v.1c4,.6,5.4,2,5.7,8.9A46.54,46.54,0,0,0,559,512h-4.6c-1.3-2.4-1-6.9-1.4-11.5-.3-4.2-3.7-4.4-5.2-4.4m-5.3-3.8h6.6c3.2,0,4.7-2.7,4.7-5.8,0-2.5-1.3-5.3-4.7-5.3h-6.7v11.1Z"/><polyline class="cls-1" points="564.9 512.1 564.9 477.4 582.8 477.4 582.8 481.2 569.3 481.2 569.3 492.4 581.8 492.4 581.8 496.2 569.3 496.2 569.3 508.2 583 508.2 583 512.1"/><path class="cls-1" d="M189.4,536.1H195l11.3,34.7h-4.9l-2.5-8.3H185.5l-2.6,8.3h-4.5m13.7-30.7H192l-5.4,18.5h11.1Z"/><polyline class="cls-1" points="235 536 235 570.8 229 570.8 215.3 540.7 215.1 540.7 215.1 570.8 211.2 570.8 211.2 536 217.5 536 231 565.8 231.1 565.8 231.1 536"/><path class="cls-1" d="M243.1,536h10.7c4.4,0,7.6,1.6,9.3,5.3,1.4,2.9,1.6,9.9,1.6,11,0,7.4-.7,11.7-2.1,14-1.9,3-5.4,4.5-11.5,4.5h-8m4.4-3.9h4.2c6.1,0,8.4-2.3,8.4-10.4v-7c0-7-2.2-9.6-6.8-9.6h-5.8Z"/><polyline class="cls-1" points="302.5 536 302.5 539.9 293.4 539.9 293.4 570.8 289 570.8 289 539.9 279.8 539.9 279.8 536"/><path class="cls-1" d="M307,558.1V546.7c0-6.9,3.6-11.3,10.9-11.3s10.9,4.4,10.9,11.3v11.4c0,9.6-3.6,13.4-10.9,13.4S307,567.7,307,558.1m17.3.2V546.6c0-7.3-5-7.5-6.4-7.5s-6.4.2-6.4,7.5v11.7c0,7.6,2.2,9.5,6.4,9.5s6.4-2,6.4-9.5"/><path class="cls-1" d="M336.3,536h4.4v22.2c0,7.6,2.3,9.5,6.5,9.5s6.5-1.9,6.5-9.5V536h4.4v22c0,9.6-3.6,13.4-10.9,13.4s-10.9-3.8-10.9-13.4"/><path class="cls-1" d="M370.2,554.8v15.9h-4.4V536h12c6.2,0,8.3,4.3,8.3,8.6,0,4.1-2.3,7.2-6.3,7.9v.1c4,.6,5.4,2,5.7,9a46.54,46.54,0,0,0,1.2,9.1h-4.6c-1.3-2.4-1-6.9-1.4-11.5-.3-4.3-3.7-4.4-5.2-4.4m-5.3-3.9h6.6c3.2,0,4.7-2.7,4.7-5.8,0-2.5-1.3-5.3-4.7-5.3h-6.7v11.1Z"/><rect class="cls-1" x="393.1" y="536.1" width="4.4" height="34.7"/><path class="cls-1" d="M409.3,560.4v1c0,4.7,3,6.2,5.8,6.2,3.5,0,6.2-1.5,6.2-5.6,0-7.7-15.6-6.8-15.6-17.3,0-6.1,4.4-9.4,10.2-9.4,6.3,0,9.9,3.1,9.6,10.1H421c0-3.8-1.2-6.3-5.4-6.3-2.6,0-5.3,1.3-5.3,5.1,0,7.7,15.6,6.6,15.6,17.6,0,7.3-5.1,9.7-10.8,9.7-10.3.1-10.3-7.7-10.2-11.1"/><polyline class="cls-1" points="436.8 570.8 432.7 570.8 432.7 536.1 439.9 536.1 448.6 565.2 448.7 565.2 457.5 536.1 464.8 536.1 464.8 570.8 460.4 570.8 460.4 539.9 460.3 539.9 450.6 570.8 446.4 570.8 436.9 539.9 436.8 539.9"/><path class="cls-1" d="M80.1,437.3l1,1.1h2.7v4.2H80.6a4.6,4.6,0,0,1-3.4-1.4,5.36,5.36,0,0,1-1.3-4l-.1-17.8c-1,.5-2.2,1.1-3.5,1.8a22.55,22.55,0,0,0-3.7,2.6,14.79,14.79,0,0,0-2.9,3.6,8.77,8.77,0,0,0-1.2,4.6c0,2.4.7,4.1,2.2,5a17,17,0,0,0,6.9,1.8l-.3,4.2a19.17,19.17,0,0,1-6.7-1.4,14,14,0,0,1-4-2.7,10.5,10.5,0,0,1-1.9-3.4,14.87,14.87,0,0,1-.5-3.6,12.9,12.9,0,0,1,2.4-7.8,22.91,22.91,0,0,1,5.6-5.6,35.13,35.13,0,0,1,6.5-3.6,52.26,52.26,0,0,1,5.4-1.9m-9.4-6.5-.8,2-2,.8-2-.8-.8-2,.8-1.9,2-.8,2,.8.8,1.9m9.2,0-.8,2-2,.8-1.9-.8-.8-2,.8-1.9,1.9-.8,2,.8.8,1.9"/><polyline class="cls-1" points="94.7 442.7 83.7 442.7 81.7 441.9 80.9 440.6 81.7 439.2 83.7 438.5 94.7 438.5"/><path class="cls-1" d="M94.7,442.7l-2-.7-.8-1.4.8-1.4,2-.7H116a13.7,13.7,0,0,1-1.3-4.3c-.3-1.8-.5-4-.7-6.8a15.84,15.84,0,0,0-1-4.7,6.22,6.22,0,0,0-1.8-2.5L109,419l-2.4-.2a11.69,11.69,0,0,0-5.9,1.9l-2.6-3.3a16.14,16.14,0,0,1,3.7-2,12.75,12.75,0,0,1,4.8-.8c3.6,0,6.3,1,8.2,3.1s3,5.2,3.4,9.4c.3,3.7.7,6.3,1,8s1,2.6,2.1,2.9l2.3.7-.1,4.1"/><polyline class="cls-1" points="129.4 442.7 129.4 400 133.6 400 133.6 438.5 137.3 438.5 137.3 442.7"/><polyline class="cls-1" points="144.5 442.7 137.3 442.7 135.2 441.9 134.4 440.6 135.2 439.2 137.3 438.5 144.5 438.5"/><path class="cls-1" d="M144.5,442.7l-2-.7-.8-1.4.8-1.4,2-.7h11V417.7h4.2v20.8h3.7v4.2m-14.2,11.5-1.9-.8-.8-2,.8-2,1.9-.8,2,.8.8,2-.8,2-2,.8m8.3,0-1.9-.8-.8-2,.8-2,1.9-.8,2,.8.8,2-.8,2-2,.8"/><polyline class="cls-1" points="172.4 442.7 163.5 442.7 161.5 441.9 160.6 440.6 161.5 439.2 163.5 438.5 172.4 438.5"/><path class="cls-1" d="M206.6,438.5v4.2H172.3l-2-.7-.8-1.4.8-1.4,2-.7h1.1c1.8,0,2.9-.2,3.2-.6l.5-2V417.4h4.2v21.1h6.8V417.4h4.2v21.1h6.1V417.4h4.4v21.1"/><polyline class="cls-1" points="221.3 442.7 206.6 442.7 204.6 442 203.8 440.6 204.6 439.2 206.6 438.5 221.3 438.5"/><polyline class="cls-1" points="224.9 399.7 229.1 399.7 229.1 442.7 221.3 442.7 219.2 441.9 218.4 440.6 219.2 439.2 221.3 438.5 224.9 438.5"/><rect class="cls-1" x="235.7" y="400" width="4.2" height="42.7"/><path class="cls-1" d="M265.7,444.8a34.78,34.78,0,0,1-.4,5.7,17.59,17.59,0,0,1-1.5,4.9,10,10,0,0,1-3.3,3.5,10.44,10.44,0,0,1-5.7,1.4V456a7,7,0,0,0,3.9-1,6,6,0,0,0,2-2.7,14.9,14.9,0,0,0,.8-4c.1-1.5.1-3.1.1-4.7v-.9h-2.3c-4.4,0-7.8-1-10.3-2.9a9.62,9.62,0,0,1-3.7-7.8,14,14,0,0,1,1.5-6.4,16.43,16.43,0,0,1,4.2-5.3,21.83,21.83,0,0,1,6.5-3.8,29.84,29.84,0,0,1,8.2-1.9m-4.2,23.9V419.6a18.34,18.34,0,0,0-8.6,4.7,9.92,9.92,0,0,0-3.2,7.5,5.6,5.6,0,0,0,2.5,4.9q2.4,1.8,7.8,1.8Z"/><path class="cls-1" d="M304.3,437.3l1,1.1H308v4.2h-3.3a4.6,4.6,0,0,1-3.4-1.4,5.81,5.81,0,0,1-1.3-4l-.1-17.8c-1,.5-2.1,1.1-3.4,1.8a22.55,22.55,0,0,0-3.7,2.6,14.79,14.79,0,0,0-2.9,3.6,8.77,8.77,0,0,0-1.2,4.6c0,2.4.7,4.1,2.2,5s3.8,1.5,6.9,1.8l-.3,4.2a19.17,19.17,0,0,1-6.7-1.4,14,14,0,0,1-4-2.7,10.5,10.5,0,0,1-1.9-3.4,14.87,14.87,0,0,1-.5-3.6,13.12,13.12,0,0,1,2.4-7.8,22.91,22.91,0,0,1,5.6-5.6,32.88,32.88,0,0,1,6.6-3.6,52.26,52.26,0,0,1,5.4-1.9m-9.4-6.5-.8,2-2,.8-2-.8-.8-2,.8-1.9,2-.8,2,.8.8,1.9m9.1,0-.8,2-2,.8-2-.8-.8-2,.8-1.9,2-.8,2,.8.8,1.9"/><polyline class="cls-1" points="318.9 442.7 308 442.7 305.9 442 305.1 440.6 305.9 439.2 308 438.5 318.9 438.5"/><path class="cls-1" d="M318.9,442.7l-2-.7-.8-1.4.8-1.4,2-.7H327a11.69,11.69,0,0,1-5.3-10.2,12.34,12.34,0,0,1,1.2-5.5,11.18,11.18,0,0,1,3.4-4.1,14.78,14.78,0,0,1,5.2-2.5,23.11,23.11,0,0,1,6.7-.9l2.4.1,2.6.3v26.9M326,428.4a8.15,8.15,0,0,0,3.2,6.6c2.1,1.7,5.4,2.9,9.8,3.5v-19h-.8a21.83,21.83,0,0,0-4.4.4,13.74,13.74,0,0,0-3.9,1.3,9,9,0,0,0-2.8,2.7,7.92,7.92,0,0,0-1.1,4.5m13.2-23.1-.8,1.9-2,.8-2-.8-.8-1.9.8-2,2-.8,2,.8.8,2"/><polyline class="cls-1" points="349.7 442.7 349.7 400 354 400 354 438.5 357.6 438.5 357.6 442.7"/><polyline class="cls-1" points="372.3 442.7 357.6 442.7 355.6 442 354.8 440.6 355.6 439.2 357.6 438.5 372.3 438.5"/><path class="cls-1" d="M372.3,442.7l-2-.7-.8-1.4.8-1.4,2-.7h5.8a14.54,14.54,0,0,1-2.2-4.3,17.68,17.68,0,0,1-.8-5.2,19.05,19.05,0,0,1,.8-5.4,14.27,14.27,0,0,1,2.4-4.4,11,11,0,0,1,3.5-3,9,9,0,0,1,8.6,0,11,11,0,0,1,3.5,3,17,17,0,0,1,2.4,4.4,16.06,16.06,0,0,1,.8,5.4,17.68,17.68,0,0,1-.8,5.2,14.54,14.54,0,0,1-2.2,4.3h5.8v4.2m-15.6-35.4-.8,1.9-2,.8-1.9-.8-.8-1.9.8-2,1.9-.8,2,.8.8,2m-5,21.6a12.22,12.22,0,0,0,1.7,6.4,6.24,6.24,0,0,0,4.2,3.2h1.7a6.24,6.24,0,0,0,4.2-3.2,12,12,0,0,0,1.7-6.4,15,15,0,0,0-.5-3.7,9.93,9.93,0,0,0-1.5-3.1l-2.2-2.1-2.6-.8-2.6.8-2.2,2.1a12.76,12.76,0,0,0-1.5,3.1,22.06,22.06,0,0,0-.4,3.7m14.2-21.6-.8,1.9-2,.8-2-.8-.8-1.9.8-2,2-.8,2,.8.8,2"/><polyline class="cls-1" points="407.3 442.7 400 442.7 398 442 397.2 440.6 398 439.2 400 438.5 407.3 438.5"/><path class="cls-1" d="M407.2,442.7l-2-.7-.8-1.4.8-1.4,2-.7h11V417.8h4.2v20.7h3.7v4.2M412,413.2l-1.9-.8-.8-2,.8-1.9,1.9-.8,2,.8.8,1.9-.8,2-2,.8m6.9-9.5-.8,2-2,.9-1.9-.9-.8-2,.8-1.9,1.9-.8,2,.8.8,1.9m1.4,9.5-1.9-.8-.8-2,.8-1.9,1.9-.8,1.9.8.8,1.9-.8,2-1.9.8"/><polyline class="cls-1" points="440.8 442.7 426.2 442.7 424.2 442 423.4 440.6 424.2 439.2 426.2 438.5 440.8 438.5"/><polyline class="cls-1" points="444.5 399.7 448.7 399.7 448.7 442.7 440.8 442.7 438.8 441.9 438 440.6 438.8 439.2 440.8 438.4 444.5 438.4"/><rect class="cls-1" x="455.3" y="400" width="4.2" height="42.7"/><path class="cls-1" d="M497.9,442.7h-4.5a22.42,22.42,0,0,1-4.8-.6,17.81,17.81,0,0,1-5-1.9,13,13,0,0,1-3.9-3.5,8.36,8.36,0,0,1-1.6-5.3,13.22,13.22,0,0,1,1.1-5.3,15.51,15.51,0,0,1,2.9-4.3,21.8,21.8,0,0,1,4-3.4,40.37,40.37,0,0,1,4.4-2.5,31.19,31.19,0,0,1,4.1-1.6,23.18,23.18,0,0,1,3-.8m-4,24.8V419.4a35.7,35.7,0,0,0-3.4,1.7,22.55,22.55,0,0,0-3.7,2.6,15.82,15.82,0,0,0-2.9,3.4,8.31,8.31,0,0,0-1.2,4.4,4.63,4.63,0,0,0,1.1,3.2l2.7,2.1a10.24,10.24,0,0,0,3.5,1.1,21.59,21.59,0,0,0,3.5.3h.4Zm-4.4-31.8-.8,1.9-1.9.8-2-.8-.8-1.9.8-2,2-.8,1.9.8.8,2m9.2,0-.8,1.9-2,.8-1.9-.8-.8-1.9.8-2,1.9-.8,2,.8.8,2"/><path class="cls-1" d="M509.4,444.6a48.86,48.86,0,0,1-.3,5.4,15,15,0,0,1-1.5,5.1,10.64,10.64,0,0,1-3.3,3.7,11.57,11.57,0,0,1-6,1.4V456a6.32,6.32,0,0,0,3.8-1l2.1-2.6a13.57,13.57,0,0,0,.9-3.6c.1-1.4.1-2.8.1-4.2V417.7h4.3v20.8h3.7v4.2h-3.7"/><polyline class="cls-1" points="520.3 442.7 513.1 442.7 511 442 510.2 440.6 511 439.2 513.1 438.5 520.3 438.5"/><polyline class="cls-1" points="531.3 442.7 520.3 442.7 518.3 442 517.5 440.6 518.3 439.2 520.3 438.5 531.3 438.5"/><path class="cls-1" d="M539.4,417.6h4.2v25.1H531.2l-2-.7-.8-1.4.8-1.4,2-.7h8.1m5.2-30.9a7.72,7.72,0,0,0-3.5-.8l-1.7.4-.6,1.5,1.2,2.3a5.56,5.56,0,0,0,3,.7h2v2.1H534v-2.1h3.5l-.6-1.1-.3-1.9a3.43,3.43,0,0,1,1.4-3.1l3-.9a11.93,11.93,0,0,1,4.4.9Z"/><rect class="cls-1" x="550.2" y="400" width="4.2" height="42.7"/><path class="cls-1" d="M560,418.4a22.3,22.3,0,0,1,4.1-2.6,14,14,0,0,1,6-1.2,11.69,11.69,0,0,1,5.7,1.3,12.35,12.35,0,0,1,4,3.5,14.49,14.49,0,0,1,2.4,5,22.39,22.39,0,0,1,.8,5.7,18.72,18.72,0,0,1-.4,4.2,15.75,15.75,0,0,1-.9,3.6l-1.1,2.8-.9,1.8H559.6v-4.2h17.5c.3-.8.7-1.9,1.1-3.3a17.26,17.26,0,0,0,.6-4.9,14.9,14.9,0,0,0-.6-4.3,12,12,0,0,0-1.7-3.6,9.67,9.67,0,0,0-2.8-2.5,7.79,7.79,0,0,0-3.7-.9,11.2,11.2,0,0,0-3.5.6,18.58,18.58,0,0,0-4.1,2.2"/><path class="cls-1" d="M412.2,303.7c-6.6,13-14.9,21.2-26.2,28.3-16.5,10.5-33.7,8-39.3,4.7l.6,1.5.5,1.4c2.2,5.9.7,12.1-7.3,13a22.94,22.94,0,0,0-7.3,1.7,22.45,22.45,0,0,0-6.5,4.9,26.37,26.37,0,0,0-4.1,5.8h0a26.37,26.37,0,0,0-4.1-5.8,22.45,22.45,0,0,0-6.5-4.9,22.94,22.94,0,0,0-7.3-1.7c-8.1-.9-9.5-7.1-7.4-13.1l.5-1.3.6-1.5c-4.1,2.4-14.2,4.2-26,1l-1.2-.3a57.29,57.29,0,0,1-25-13.9,78.42,78.42,0,0,1-15.1-20.1c-15.7-32.4-13.5-80.6-13.5-85.7-.5-55.6,11.8-86.8,22.3-101.8-3.2-4.2-5.1-6.7-5.3-6.9a11.11,11.11,0,0,0-6.6-3.2,109.25,109.25,0,0,0-3.8-15.9,95.27,95.27,0,0,0,14.1,8.2c-.5,3.7.4,5.9,1.4,7.2.1.2,1.6,2.2,4.2,5.6a58.43,58.43,0,0,1,17.5-14.6c1.9-1.1,3.9-2.1,6.1-3.1a10.48,10.48,0,0,1,2.8-7.7,5.51,5.51,0,0,1,3.3-4.5,7.14,7.14,0,0,1,5.8,1.6,13,13,0,0,1,7.9,4.3A146.45,146.45,0,0,1,309.5,84a12.86,12.86,0,0,1,6.9-8.7,7.08,7.08,0,0,1,5.4-3.7h0a7.08,7.08,0,0,1,5.4,3.7,12.86,12.86,0,0,1,6.9,8.7,146.45,146.45,0,0,1,22.2,2.9,13.24,13.24,0,0,1,7.9-4.3A6.81,6.81,0,0,1,370,81h0a5.71,5.71,0,0,1,3.3,4.5,10.32,10.32,0,0,1,2.8,7.8c2.2,1,4.2,2,6.1,3.1A64,64,0,0,1,400,111.2c2.8-3.7,4.5-6,4.6-6.2a9.85,9.85,0,0,0,1.4-7.2,86.42,86.42,0,0,0,14.1-8.2,120.24,120.24,0,0,0-3.7,15.9,10,10,0,0,0-6.6,3.3c-.2.1-2.4,3.1-6,7.8,10.5,15.2,22.6,46.1,22.1,101.3-.1,4.2,2,53.3-13.7,85.8M377.5,140.6c-16.5-16.3-40.1-17.4-46.3-16.9-1.4.1-3.1,1.2-1.3,3.6-1.3.6-6.4.1-8.2-1.6-1.9,1.8-6.9,2.2-8.3,1.6,1.8-2.4.2-3.5-1.3-3.6-6.2-.4-31,2-46,16.6,8.3,10.9,25.5,33.7,25.9,34.2l2.2,1h.4l2.6-1.7c1.8-2,2.7-3,4.4-4.8,3.4-3.5,6.6-6.1,7.1-6.6a4.76,4.76,0,0,0,1.9-3.5c-.1-1.2-1.1-1.7-1.7-2.5l-.3.4-1.2-2.4-.4.9s-1.3-3-3.3-2.8a7.26,7.26,0,0,1-4.8-.9l-.2,1.9h-.1c-1.9-1.6-2.5-5.7,1.2-8.4a15.05,15.05,0,0,1,4.4-2.4l1.4-1.3c1.2-1.4,3.5-2.2,4.8-2.6a39.08,39.08,0,0,1,9.7-.8,16,16,0,0,1,5.8,1.3,22.12,22.12,0,0,1,6.5,5.5A60.34,60.34,0,0,1,337,154c2.5,6.1,2.2,5.5,3.9,9.6,1.9,4.6,3.1,7.3,5,9.9a3,3,0,0,0,2.6,1.3l2.7-.6,1.1-1.1c6.3-8.3,17.1-21.8,25.2-32.5"/><path class="cls-2" d="M337.1,321.7l-.3.4h-.2a16.2,16.2,0,0,1-2.6-1.9,108.51,108.51,0,0,1,2.8,19.7,7.46,7.46,0,0,1,8.2,1.2c-.1-.2-7.1-17.5-7.9-19.4h0"/><path class="cls-2" d="M370.1,160.8h.1l.6.2a8.32,8.32,0,0,1,3,2c3.3,3.5,8.8,11.9,11.9,20.6a57.44,57.44,0,0,1,2.7,19.3h0s-2,36-5.8,70.5c-3.5,31.3-5.4,35.4-5.4,35.4a24.11,24.11,0,0,1-3.7-8.6l-.3.3a29.81,29.81,0,0,1-3.3-9.3c-1.4-7-1.6-19.6-1.5-25.6h0a11.19,11.19,0,0,0-1.3-4.8,32.55,32.55,0,0,1-1.5-4.4v-.1c-2.1-9.6-6.2-12.3-8.5-15.3-2.9-3.8-4.6-6-5.7-8.2-1.7,1.6-3,3.2-3,4.1.6,5.8,1.1,9.9.3,12.9l-1.2-1c.4,3.8-1.4,8.3-.3,11.8l-2.3-.3.3.6,1.1,1,.8.4a19.27,19.27,0,0,0,2.3.8,6.82,6.82,0,0,0-1-7.2c-1.1-1.3.2-3.2,2.5-2.3a31.17,31.17,0,0,1,9.3,6.3c4.7,4.5,6.1,8.9,5.1,9.7l-2.3.2-.1.5-2,1.8-.1.2c-.5.7-1.3,1-2.8,1a5.61,5.61,0,0,1-2.8-.9l-.9-.7-1.3,1.1.5.6a9,9,0,0,1,2.2,4l.1.9c3.9,4.7,8.6,10.4,11.8,16a61.62,61.62,0,0,1,5.1,11,8.63,8.63,0,0,1-4.3,0,15.53,15.53,0,0,1,1.2,6.1,13.52,13.52,0,0,1-6.9-1.5l.4,2.4c3.5,2.3,6.1,4.4,7.5,5.4-11.3,5.3-27.6,2.9-27.9,2.8l-2.5-.4-.5-.1s4,9.6,4.7,11.1c7.2,3.3,13.8,5.4,24.1,3.7a39.06,39.06,0,0,0,6.1-1.6c4.5-1.5,12.9-6.4,19.4-12.5a75.26,75.26,0,0,0,14.5-18.6C421,277.7,423,241.6,423,227v-7.6c-.1-4.9-.4-12.2-.6-15.9-4.3,3.8-9.8,7.8-26.8,17.2l-3,1.7-.1-3.5c0-.3-.2-29.9-15.2-67.2a110.87,110.87,0,0,0-7.2,9.1"/><path class="cls-2" d="M308.2,339.8a155,155,0,0,1,2.4-19.2l-1.2.9-.9.6h-.2l-.4-.5c-1.3,3-7.9,19.2-7.9,19.4a7.89,7.89,0,0,1,8.2-1.2"/><path class="cls-2" d="M334.7,344.2c.2-5.1-2.2-20-3.2-26.1h0l-1.1-.4-1,2.5a11.07,11.07,0,0,1-2.1,3.2,14.79,14.79,0,0,1-5.3-6.2,14.26,14.26,0,0,1-5.2,6.1c-.3,0-1.4-1.6-2.1-3.2l-1.1-2.6-.1.2c-1,6.3-3.2,21.5-3,26.6-6.8-4.4-10.8,0-9.4,3.1l.4.7a4.3,4.3,0,0,0,3.4,1.8,21.49,21.49,0,0,1,8.3,1.9,26.55,26.55,0,0,1,9.5,7.8,26.55,26.55,0,0,1,9.5-7.8,24,24,0,0,1,8.3-1.9,4.39,4.39,0,0,0,3.3-1.8l.5-.7c1.2-3.2-2.9-7.7-9.6-3.2"/><path class="cls-2" d="M234.9,301.6a73.38,73.38,0,0,0,14.2,18.9,56.37,56.37,0,0,0,21.1,12.4l1.8.6a37.29,37.29,0,0,0,28.7-2.6l.1-.3c.7-1.8,4.6-11.1,4.6-11.1l-.5.1a51.46,51.46,0,0,1-5.3.7c-1.1.1-16.6,2.5-27.8-2.8a107.25,107.25,0,0,1,9.7-6.7l.2-1.4a12.73,12.73,0,0,1-6.9,1.5,13.91,13.91,0,0,1,1.2-6.1,9.12,9.12,0,0,1-4.3-.1,61.62,61.62,0,0,1,5.1-11,108,108,0,0,1,9.8-13.5l-.3-1.5.2-1.6a8.76,8.76,0,0,1,2.2-4l.7-.7-1.3-1.1-1.1.8a6.69,6.69,0,0,1-2.8.8,3,3,0,0,1-2.8-.9l-.1-.2-2-1.8-.1-.5-2.1-.3c-1-.9.4-5.2,5.1-9.7a31.17,31.17,0,0,1,9.3-6.3c2.2-1,3.6.9,2.5,2.3a6.86,6.86,0,0,0-1,7.2c1.4-.5,1.9-.7,2.1-.8l1.9-1.3.2-.5-2,.2c1-2.5-.6-8.6.5-12.5l-1.4.8a49.89,49.89,0,0,1-.3-12.1c-.1-.8-1.2-2.1-2.7-3.6a81.76,81.76,0,0,1-5.3,7.5c-2.3,3-6.4,5.7-8.5,15.4h0l-.3,1.1-.4,1.2-.3.8-.5,1.2a11.19,11.19,0,0,0-1.3,4.8h0c.2,6.1-.1,18.6-1.5,25.6-1.2,6.2-3.3,9.3-3.3,9.3l-.3-.3c-.5,2.1-1.4,5.8-3.7,8.6,0,0-1.9-4.1-5.5-35.4-3.8-34.5-5.8-70.4-5.8-70.4h0a55.36,55.36,0,0,1,2.7-19.3c3-8.7,8.6-17.1,11.9-20.6a8.49,8.49,0,0,1,3.2-2.1l1.1-.2h0c-2.4-3.3-4.9-6.5-7.3-9.7-15.2,37.4-15.4,67.3-15.4,67.6l-.2,3.6-3-1.7c-17-9.4-22.5-13.4-26.8-17.2-.2,3.7-.6,15.9-.6,15.9v7.6c.2,14.9,2.8,50.8,14.7,75.4"/><path class="cls-3" d="M344.8,195.1c1.5,2-.3,5-1.7,7.2a59.59,59.59,0,0,1,1.7-7.2m-41.1-15.6c1.4-4.9,4.1-7.7,5-10.5-4.9,3.5-5.9,8.8-5,10.5m31,40c3-3.7,4.5-7.9,3.2-12.2-2.6,4.1-2.6,8.3-3.2,12.2m9.2-32.7c-2.1.5-1.3,8.8-1.4,8.8s3.2-5.7,1.4-8.8m-41.5,14.5c-1.2,4.9,3.7,9.6,3.8,9.7-.1,0-.1-5.8-3.8-9.7m-.1,7.9c-.2.9.6,3.6,1.5,5.2a29.18,29.18,0,0,0,4.3,5.5c-2.1-3.2-3.7-9.1-5.8-10.7m40-35c-.3,2.5,2.6,8.2,2.7,8.7a8,8,0,0,0-2.7-8.7m-44.5,11.7c-.4-2.4,2.6-4.6,1.6-8.5a7.62,7.62,0,0,0-1.6,8.5m8,6.2a47,47,0,0,1-.5,6.3c-1.4-.3-2-1.3-3.1-2.1.8,2.8,4.3,5.9,4.8,6.8.5-3.9.7-8.4-1.2-11M323.2,145c.9.9,3.8,2.1,5.5,3.7-.2-2.5-2.4-3.9-5.5-3.7m8.9,20.6c0-1.9-.6-5.1-4.8-5.7-.3,2.1,3.4,3.4,4.8,5.7m-17.8-22,.2,1.6a2.51,2.51,0,0,1-2.1,2.3,2.57,2.57,0,0,1-3.3-2.3l.3-1.4-1.1,1.1-1.5.8a4.34,4.34,0,0,1,2.3-3.1c1.8-.8,7.9-1.1,12.2,1.2a32.19,32.19,0,0,0-4.3-.3c-1.7.1-2.7.1-2.7.1m-.8.1-1.7.2,1.1.8.6-.3v-.7m6.1,1.3c1.4,1.7,2.8,3.1,5.2,2.9a9.2,9.2,0,0,0-5.2-2.9m22.8,60c-1.9,2.6-2.5,8.5-3.1,10.5.7-.6,4.2-9,3.1-10.5m-11.6-52c-.1-.6-1.5-2.5-4.4-3.1l1.6,2.6-2.6.5c.9.8,2.9,1,5.4,0m-.4,18.5c-2,2.1-.1,6.4,1,10.2,1-1.9,2.3-8.2-1-10.2m10.4,9.7c-1.1,5.2-3.4,7.2-3.4,7.2a23.43,23.43,0,0,1-3.3-3.5c-.1,4.2,3.5,8.3,3.4,8.2s4.5-3.5,3.3-11.9m-5.5-18c-.4,2.4,3.4,5.9,3.4,5.9s.5-4.4-3.4-5.9m-7.9-5.6c1,1,4.1,1.7,5.8,3.3-.2-2.6-2.9-4.3-5.8-3.3M380.1,187c-.9,8.8-1.5,10.6-2.4,12.1l-1.4-2.3a6.47,6.47,0,0,0,1.4,5.3c1.7-2.4,2.9-7.2,2.4-15.1m-80.6,14c-.7-4.2-.4-6.9-2.4-10.6-.7,4.3,1.9,9.9,2.4,10.6m65.1,9.5s-1.4-3.3,1.8-13.3c-4.6,10.2-4,13-3,16.5,2-1.5,2.8-2.5,3.2-4.8a5.7,5.7,0,0,1-2,1.6m-3-8.7s-1.1-2.3,1.7-11c-5.2,8.3-2.9,14.1-2.9,14.1a7.23,7.23,0,0,0,3.4-4.6l-2.2,1.5m22.4,5.7s2.2-3.7,1.1-9.9c-.3,5.8-1.6,8-1.6,8l-1-1a3.92,3.92,0,0,0,1.5,2.9m-4.6-5.9a4.29,4.29,0,0,0,1.6,3.3s2.7-4.1,1.6-11.2c-.5,6.6-1.9,8.9-1.9,8.9l-1.3-1m-1-20.5c-1.3,9.8-2.8,12.1-3.8,13.7l-1.4-3a7.61,7.61,0,0,0,1.3,6c2-2.5,4.2-7.8,3.9-16.7m-38.8,57.6-.5-2.1c-.4,1.9-2.9,5.9-2.4,10.6,1.2-4.2,4.4-5,5.2-8.9l2,.7c-.4-1.5-1.5-3.1-1.9-6.3-.4,1.1-.8,4.2-2.4,6M376,177.4c-1.3,8.1-3.4,11.5-4.5,13.2a15.1,15.1,0,0,1-.7-5.3c-1.2,3.8-.9,7,.4,8.6,2.2-2.4,5.2-9.7,4.8-16.5m-7.8,7.6a30.26,30.26,0,0,1-.3-6.9c-1.6,3.7-1.4,8.7-.3,10.5,2.4-2.1,5.6-8.5,5.8-15.3-2,8-4,10.2-5.2,11.7m-40.5,15.6s3.8-3.5,4.1-10.7a19.89,19.89,0,0,1-4.4,5.5,22.24,22.24,0,0,1-3.7-3.4c0,4.7,4,8.7,4,8.6m-56.2-10c-1.1-1.6-3.3-5-4.5-13.2-.4,6.8,2.7,14.1,4.8,16.4,1.3-1.6,1.7-4.8.4-8.6a18.7,18.7,0,0,1-.7,5.4m6.8,19.9a5.31,5.31,0,0,1-2-1.7c.4,2.3,1.2,3.3,3.2,4.8,1-3.5,1.6-6.2-3-16.5,3.1,10,1.8,13.4,1.8,13.4M274.8,185c-1.3-1.5-3.2-3.7-5.3-11.7.2,6.8,3.5,13.1,5.8,15.3,1.1-1.7,1.3-6.8-.3-10.5a23.41,23.41,0,0,1-.2,6.9m29.7-39.2.4,1,.9-.9-1.3-.1m-39.2,53.3c-.9-1.5-1.5-3.3-2.4-12.1-.6,7.9.6,12.8,2.3,15.1,1.3-1.3,1.6-3.7,1.4-5.3l-1.3,2.3m-5.9,6.5s-1.3-2.2-1.6-8c-1.2,6.2,1.1,9.9,1.1,9.9a3.92,3.92,0,0,0,1.5-2.9l-1,1m2.9-3s-1.4-2.3-1.9-8.9c-1.1,7.1,1.6,11.2,1.6,11.2a4,4,0,0,0,1.5-3.3l-1.2,1m6-7.8c-1-1.7-2.5-3.9-3.8-13.7-.3,9,1.9,14.3,3.9,16.7,1.4-1.5,1.7-4.2,1.3-6l-1.4,3m37.3,52.1c.6-4.7-1.9-8.7-2.4-10.6l-.5,2.1c-1.7-1.8-2.1-4.9-2.4-6-.4,3.2-1.5,4.8-1.9,6.3l2-.7c.9,3.9,4.1,4.7,5.2,8.9m-24.2-45.1-2.2-1.5a7.6,7.6,0,0,0,3.4,4.6s2.2-5.8-2.9-14.1c2.8,8.7,1.7,11,1.7,11m46.1,24.1c.9-2,3.1-5.8,2.6-10.1-1.9,1.6-2.8,7.5-2.6,10.1m-.2,13.3c.9-2.2,2.8-4.3,2.8-11.2-2.2,2-3,8.6-2.8,11.2m1-32.6a14.72,14.72,0,0,1-4.3,7,13.4,13.4,0,0,1-3.1-4.3,9.07,9.07,0,0,0,3.9,8.7c1-.8,4.2-5.4,3.5-11.4m-5.1,35.3c1.1-2.8,1-6.3-.2-7.8-.9,3-1,5.6.2,7.8m-3.1-8.4c1.1-3.2.8-7.1-.6-8.8-.9,3.3-.9,6.3.6,8.8m92.1,70.2c-6.6,13-14.9,21.2-26.2,28.4-16.5,10.5-33.7,7.9-39.3,4.7l.6,1.4.5,1.3c2.2,6,.7,12.1-7.4,13.1a20.14,20.14,0,0,0-7.3,1.6,22.45,22.45,0,0,0-6.5,4.9,29,29,0,0,0-4.1,5.8,26.37,26.37,0,0,0-4.1-5.8,24.45,24.45,0,0,0-6.5-4.9,19.72,19.72,0,0,0-7.3-1.6c-8-.9-9.5-7.1-7.3-13.1l.5-1.3.6-1.5c-4.1,2.4-14.2,4.2-26,1l-1.2-.3a57.29,57.29,0,0,1-25-13.9,78.42,78.42,0,0,1-15.1-20.1c-15.7-32.4-13.5-80.6-13.6-85.7-.5-55.6,11.8-86.8,22.4-101.8-3.2-4.2-5.1-6.7-5.3-6.9a10.57,10.57,0,0,0-6.6-3.2,109.25,109.25,0,0,0-3.8-15.9,95.27,95.27,0,0,0,14.1,8.2c-.5,3.7.4,5.9,1.4,7.2.1.2,1.7,2.2,4.2,5.6a58.43,58.43,0,0,1,17.5-14.6c1.9-1.1,3.9-2.1,6.1-3.1a10.39,10.39,0,0,1,2.9-7.8,5.75,5.75,0,0,1,3.2-4.5h0a6.81,6.81,0,0,1,5.8,1.6,13,13,0,0,1,7.8,4.3,146.45,146.45,0,0,1,22.2-2.9,12.68,12.68,0,0,1,6.9-8.6,7.08,7.08,0,0,1,5.4-3.7h0a7.08,7.08,0,0,1,5.4,3.7,13.18,13.18,0,0,1,6.9,8.6,146.45,146.45,0,0,1,22.2,2.9,13.24,13.24,0,0,1,7.9-4.3,6.81,6.81,0,0,1,5.8-1.6h0a5.87,5.87,0,0,1,3.3,4.5,10.32,10.32,0,0,1,2.8,7.8c2.2,1,4.2,2,6.1,3.1a64,64,0,0,1,17.8,14.8c2.8-3.7,4.5-6,4.6-6.1a9.85,9.85,0,0,0,1.4-7.2,83.34,83.34,0,0,0,14-8.2,115.86,115.86,0,0,0-3.7,15.9,10.48,10.48,0,0,0-6.6,3.2c-.1.2-2.4,3.1-5.9,7.8,10.5,15.2,22.6,46.1,22.1,101.3,0,4.3,2.1,53.4-13.6,85.9m-5-174.6a50.3,50.3,0,0,1-13.2,1.3,25.34,25.34,0,0,0-2.9,13.2,13,13,0,0,1-5.6-3.1c-2,2.7-4.1,5.4-6.2,8.2,13.7,32.8,15.9,60.2,16.2,68.3,22.4-12.7,25.6-16.4,26.6-18-1.6-29-5.7-51.1-14.9-69.9m-30.4,85.2a22.13,22.13,0,0,0,.4,8.9,24.34,24.34,0,0,0,3.5-7.4A23.19,23.19,0,0,0,382,223c1.9-3,3-14.7,3-14.7l1,.7c1-4.2.5-12.9-.4-16.9a57.78,57.78,0,0,0-12.4-26.2c-4.2-5.3-7.8-2.9-11.4,1.2-5.8,6.7-7,9.7-13.9,11-.7.1-.2.5,1.2.5,8.3-.2,10.9-6,13.4-9,1.6-2,3.8-3.7,5.6-2.6.7.4,2.9,3.2.6,10.2a5.41,5.41,0,0,0-.9-3.3,41.79,41.79,0,0,1-4.3,11.4l-.5-2.5c-.8,5.6-5.5,11.5-6.2,19.5a6,6,0,0,1-1-3.5c-3.6,7-7.2,19.5-5,25.8-.1-6.4,3.6-15.6,5.5-18.5-2.5,8.2-5.3,18.4-2.9,24.5.2-5.2,3-13.8,5-17.3-3.4,13.5-4.8,20.4-1,25.6-.7-5.1,1.3-12.7,3.9-19-1.7,10.5-4.3,19.7.4,24.4-.7-6.9,1.8-16.1,3.1-19.3-1.5,10-2.8,19.6.1,24.6a37.36,37.36,0,0,1,.5-5.4,79.66,79.66,0,0,1,2.8-13.5s-1,7.1-1.5,15.8c-.5,8.4.9,12.4,1.8,14,.8-11.5,2.1-21.4,3.5-26,0,0-1.2,10.7-2,27.2-1.2,25.1,1.9,32.9,2.8,35.2a14.1,14.1,0,0,1-.3-3.5,24.37,24.37,0,0,1,.2-5.3c.1-.8-2-5.2-1.7-11,.8-16.5,2.8-32.6,4.6-40.1-.2,3-3.1,38.3-2.9,42.8.2,4.7,1.5,6.8,1.5,7.5-.2,9.2.6,12.9,2.1,16.4,0,0,.9-3.3,1.6-7.4l-.9.8c-1.1-3-1.6-8.2-.9-13.6.1-1-1.2-2.2-1.1-6.5.3-10.9,3.2-32,4.5-38.2.1.8-2.8,35.6-2.9,37.8-.1,4.6,1.1,5.9,1,6.8-.3,3.3-.2,9.3.3,10.9a32.82,32.82,0,0,0,.7-3.8s2.7-21.2,4.7-45.3c1-11.9,2.2-26.7,2.6-33.3l-.3-.2s-1.1,12.6-4.3,17.1c-.9-.8-1.9-5.6-1.8-7.1-.7,2.5-3.6,5.9-3.6,5.9a18.13,18.13,0,0,1-.9-6.6,10.83,10.83,0,0,1-3.2,3.5,14.83,14.83,0,0,1-1.2-7.2,9.69,9.69,0,0,1-2.9,2.8c-.4-1-2.5-4.5,1.3-17.7-1.5,12.2-.6,13.6-.3,14.6l2-1.4a82,82,0,0,1,1.2-8.6c-.6,9.7.1,12.7.9,14.6a27.8,27.8,0,0,0,4-7.3m-30.9,19.1.1-.3h.2l.9.4.9.5a14.56,14.56,0,0,1-.7-4.7,26.22,26.22,0,0,0-.8-6.1v.1l-.1-.2-1.7,2.8a10.16,10.16,0,0,0-2.3,4.5l-.1.3-.3-.2-1.1-1.2-.3-.4-.1-.1c-.7,2.9-5.6,9-6.8,10.3-.1.2-2,3-2.7,9.9a41.39,41.39,0,0,0,0,10.5l1.7-1.9a29.08,29.08,0,0,1-.1,3.9,13.78,13.78,0,0,1-.7,2.9,6.88,6.88,0,0,0,6.1-2.6l.5,1.3c.4,1.2.8,2.7-.2,3.5-.2.1-1.8,1.5-1.6,3l.9,1.4h.1v.1l1.1,1.4v-1.3l1.5-1.2.7.1h.1v.1s.4,3.9.7,5.5a48.13,48.13,0,0,1,.9,5.3l.2,1.4a1.56,1.56,0,0,0,1.6,1.6h1.7l-.9.8a4.23,4.23,0,0,1,.1,2.6l.1.1c1.6-.8,1.6-2.3,1.4-3.5v-.1l.1-.1c1.2-.7.9-3-.8-6.6-.8-1.7-1.1-4.5-.6-4.8h.1c.3,0,.6,0,1.4,1.1l1.8,2.4,1.1,2.3-.2.5-.5.2-1.1-.1,2.2,1.5c1.1-1.2.1.8,2,1a2,2,0,0,0,2.1-2.2l-.2-1.3a6.81,6.81,0,0,0-1.8-3.3l-.4-.4c-3.2-3.5-2.9-4.3-2.7-4.6l1.4-.7a21.73,21.73,0,0,1,2.6.2c1.3.2,3.4.6,3.3,1.3l-.3.4-1.3.3,1.2.8,3.4-.2.2-.4,1.7-.9-1.6-2.1a39.81,39.81,0,0,0-4.7-1.8l-2.3-.6-3.8-1-2.8-1-.8-.4L344,262a19.79,19.79,0,0,1-1.3-3.8,10.09,10.09,0,0,0,3,1.2l-.1-3.4c.6-6.3.7-9.9.7-9.9l1.3,1.3c.2-1.1-.2-3.7-.4-6.3a65.19,65.19,0,0,0-1.3-7.7m4.5,29.8,2.9.8,1.4.4a10.79,10.79,0,0,0,.7-4.3c-.1-1.6,3.7,1.8,6.1,4.3l.6-.2c-2.5-3.4-7.4-6.6-8.8-7.5-2.4-1.5-3.6-1.1-2.8.2,1.1,1.5.9,3.8-.1,6.3m3.2,24.4c2.7,3.2,6.9,9.2,8.5,10.8,3.5,3.5,5,3.9,7.6,4-.8-2.4-1.8-4.6-5.9-10.8-2.1-3.2-5.6-7.8-8.4-11.4l-.2.4-1,1.1-2.1.5-1.9-.9-1.3-.3a4,4,0,0,1-.7,3,5.39,5.39,0,0,1-1.4,3.7l.2.3c.9,1.6.5,2.5.1,3l-5.8,6.3a1.7,1.7,0,0,1-2.4-.2l-.7-.6-2.1,2.1.3.2h0a18.26,18.26,0,0,0,5,3.1c1.8.8,5.3,2,8.9,3.5h0a70.61,70.61,0,0,1-2.9-8.4c1,1.4,3.9,6.4,5.7,9.5h0l3.8,1.9,3.6,1.9a21.44,21.44,0,0,0-.5-2.7,50.53,50.53,0,0,1-3.8-4.3,40.22,40.22,0,0,1-6-11.6c3.5,5,4.4,6.4,5.8,8.2,4.4,5.6,9,8.1,10.8,8.1-.6-3.2-1.8-3.9-1.8-3.9a32.9,32.9,0,0,1-4.6-4.9c-2.1-2.3-4.5-6.3-6.8-11.6M342.2,318c6.2.8,19.6.6,24.4-1.3-1.8-1.5-9.4-6.4-21.1-11-2.4-1.1-5.5-2.2-7.6-3.7a28.6,28.6,0,0,1-3.5-2.8c-3.8-3.5-14-14.1-15.7-16l-6.7,6.2s17.8,17.4,22.3,19.8c5.7,3.1,22.1,6.8,22.1,6.8s-12.6-.9-22.1-4.8c-5.7-2.3-23.9-20.3-23.9-20.3L306,295a123,123,0,0,0,15.1,14.4c5.3,4.5,12,7.5,21.1,8.6m-15.6-2c-1.1-.6-2.2-1.2-3.3-1.9h0l1,2a15,15,0,0,0,2.4,3.6l.3-.5,1-2.5-1.4-.7m-32.3-24.3a43.7,43.7,0,0,1-6.1,11.6,40.83,40.83,0,0,1-3.7,4.3s-.2.7-.4,1.8l1.3-.7c2-1.1,4.3-2.1,6.6-3.1,1.9-3.2,4.6-7.7,5.5-9a56.59,56.59,0,0,1-2.9,7.9c3-1.2,5.6-2.1,6.9-2.7a15.8,15.8,0,0,0,3.9-2.4l.8-.8-2.2-2.2-.7.6s-1.3,1.2-2.4.2l-5.8-6.3c-.4-.5-.9-1.4.1-3l.1-.1a5.22,5.22,0,0,1-1.6-3.8,3.6,3.6,0,0,1-.7-3l-1.4.3-1.8.9h-.3l-2-.6c-2.5,3.3-5.3,7-7.1,9.7-4,6.2-5,8.4-5.8,10.8,2.7-.2,4.2-.6,7.6-4,1.6-1.6,5.8-7.6,8.5-10.8a53.29,53.29,0,0,1-6.7,11.9,32.9,32.9,0,0,1-4.6,4.9s-1.2.7-1.8,3.8c1.8,0,6.5-2.5,10.9-8.1,1.5-1.7,2.4-3.1,5.8-8.1m-4.3-18-.4.4a6.81,6.81,0,0,0-1.8,3.3l-.2,1.3c.1,1.5.9,2.3,2.1,2.2,1.9-.2.9-2.2,2-1l2.2-1.5-1.1.1-.5-.2-.2-.5,1.1-2.3,1.8-2.4c.8-1.1,1.1-1.2,1.4-1.1h.1c.4.3.2,3.1-.6,4.8-1.7,3.6-2,5.9-.8,6.6l.1.1v.1c-.2,1.3-.2,2.7,1.4,3.5l.1-.1a4.23,4.23,0,0,1,.1-2.6l-.9-.8h1.6c.7-.1,1.5-.2,1.6-1.6l.1-1.4a48.13,48.13,0,0,1,.9-5.3,50.06,50.06,0,0,0,.7-5.5v-.1h.1l.7-.1,1.5,1.2.1,1.3,1.1-1.4v-.1h.1l.9-1.4c.2-1.4-1.4-2.9-1.6-3-1-.8-.7-2.2-.2-3.5l.6-1.5,1.9,1.6a6.7,6.7,0,0,0,4.6,1.2,13.78,13.78,0,0,1-.7-2.9,29.08,29.08,0,0,1-.1-3.9l1.7,1.9s1-3.4.4-9.9a40.17,40.17,0,0,0-2.7-11.5,17.65,17.65,0,0,0-1.5-3.4,3.21,3.21,0,0,1-1.4,1.9c-1.4-1.8-4-5.4-4.7-7.8l-1.4,1.8-.3.2v-.3a10.16,10.16,0,0,0-2.3-4.5l-1.7-2.8a24.89,24.89,0,0,0-.8,6.1,14.56,14.56,0,0,1-.7,4.7l.9-.5.9-.4h.1l.1.1.1.3a47.81,47.81,0,0,0-1.2,7.3,25.88,25.88,0,0,0,.2,6l1.9-1.1a27.44,27.44,0,0,0-.6,10l-.1,3.4a6.26,6.26,0,0,0,2.7-1.1,19.79,19.79,0,0,1-1.3,3.8l-1.6,1.4-.8.4-2.8,1-3.8,1-2.1.5a35.36,35.36,0,0,0-4.8,1.8l-1.6,2.1,1.7.9.2.4,3.4.2,1.2-.8-1.3-.3-.3-.4c-.1-.7,2-1,3.3-1.3a24.21,24.21,0,0,1,2.6-.2l1.4.7c.1.6.4,1.4-2.8,4.9m1.6-16.9c.8-1.3-.4-1.6-2.8-.2-1.4.9-6.3,4.1-8.8,7.5l.6.2c2.5-2.5,6.2-5.9,6.1-4.3a10.79,10.79,0,0,0,.7,4.3l1.1-.3,3.2-.8c-.9-2.5-1.1-4.9-.1-6.4m-5-50.8c1.9,2.9,5.6,12.1,5.5,18.5,2.3-6.3-1.4-18.8-5-25.8a6.18,6.18,0,0,1-.9,3.5c-.7-8-5.4-13.8-6.2-19.5l-.5,2.5a45.33,45.33,0,0,1-4.3-11.4,6.21,6.21,0,0,0-.9,3.3c-2.4-6.9-.1-9.7.6-10.2,1.8-1.1,3.9.7,5.6,2.6,2.5,3,5.1,8.8,13.4,9,1.4,0,1.9-.3,1.2-.5-6.9-1.3-8.2-4.3-13.9-11-3.6-4.2-7.2-6.5-11.4-1.2A57.78,57.78,0,0,0,257.4,192c-.8,4.1-1.4,12.7-.4,16.9l1-.7s1.1,11.8,3,14.7a23.19,23.19,0,0,0,1.3-7.2,20.73,20.73,0,0,0,3.4,7.3,22,22,0,0,0,.4-8.9c1.7,4.2,2.9,6,3.8,6.7.7-1.9,1.4-4.9.9-14.6a77.53,77.53,0,0,1,1.1,8.6l2,1.4c.3-1,1.2-2.4-.3-14.6,3.8,13.2,1.7,16.8,1.3,17.7a8.63,8.63,0,0,1-2.9-2.8,14.83,14.83,0,0,1-1.2,7.2,9.29,9.29,0,0,1-3.3-3.5,18.13,18.13,0,0,1-.9,6.6s-2.9-3.4-3.6-5.9c.1,1.6-1,6.3-1.8,7.1-3.2-4.4-4.3-17.1-4.3-17.1l-.3.2c.4,6.6,1.6,21.4,2.6,33.3,2,24.1,4.7,45.3,4.7,45.3a18.11,18.11,0,0,0,.7,3.8,52.25,52.25,0,0,0,.3-10.9c-.1-.8,1.1-2.2,1-6.8,0-2.3-3-37-2.9-37.8,1.3,6.2,4.3,27.3,4.5,38.2.1,4.3-1.3,5.6-1.1,6.5.7,5.4.2,10.6-.9,13.6l-.9-.8c.7,4.1,1.6,7.4,1.6,7.4,1.5-3.5,2.4-7.2,2.1-16.4,0-.7,1.3-2.8,1.5-7.5.2-4.5-2.7-39.8-2.9-42.8,1.8,7.5,3.8,23.7,4.6,40.1.3,5.9-1.8,10.2-1.7,11a24.17,24.17,0,0,1,.2,5.3,15.58,15.58,0,0,1-.3,3.5c1-2.3,4.1-10.2,2.8-35.2-.8-16.5-2-27.2-2-27.2,1.4,4.6,2.7,14.5,3.5,26,.9-1.7,2.4-5.6,1.8-14-.5-8.6-1.5-15.8-1.5-15.8a82.81,82.81,0,0,1,2.8,13.5c.3,2,.4,3.8.5,5.4,2.8-5,1.5-14.6,0-24.6,1.3,3.2,3.8,12.4,3.1,19.3,4.6-4.6,2.1-13.8.4-24.4,2.6,6.3,4.6,13.9,3.9,19,3.7-5.2,2.4-12.1-1-25.6,2,3.6,4.8,12.1,5,17.3,2.9-5.5,0-15.6-2.4-23.8m90.9-65.4c-16.5-16.3-40.1-17.4-46.2-16.9-1.4.1-3.1,1.3-1.3,3.6-1.3.6-6.4.2-8.2-1.6-1.9,1.8-6.9,2.2-8.3,1.6,1.8-2.4.2-3.5-1.3-3.6-6.2-.4-31,2-46,16.6,8.3,10.9,25.5,33.7,25.9,34.2l2.2,1h.4l2.6-1.7c1.8-1.9,2.7-3,4.5-4.8,3.4-3.5,6.6-6.1,7.1-6.6a4.76,4.76,0,0,0,1.9-3.5c-.1-1.2-1.1-1.7-1.7-2.5l-.3.5-1.2-2.4-.3.9s-1.2-3.1-3.3-2.8a7.48,7.48,0,0,1-4.8-.9c-.2,0-.3.9-.2,2l-.1-.1c-1.9-1.6-2.5-5.8,1.2-8.4a13.91,13.91,0,0,1,4.4-2.4l1.5-1.3c1.2-1.4,3.5-2.2,4.8-2.6a39.08,39.08,0,0,1,9.7-.8,16.58,16.58,0,0,1,5.9,1.3,22.12,22.12,0,0,1,6.5,5.5,60.34,60.34,0,0,1,4.6,9.2c2.5,6.1,2.2,5.5,3.9,9.6,2,4.7,3.1,7.2,5,9.9a2.72,2.72,0,0,0,2.6,1.3l2.7-.6,1.1-1.1c5.8-8.4,16.6-21.9,24.7-32.6M332,238.5s2.2-2.1,3-9l1.4,2c1.4-1.7,4.2-10.9,4.5-14l1.1.7c.7-1.4,2.3-6.6,3-13.9l1.2.4a119.11,119.11,0,0,0,1.1-12.4c.1-3.2,0-9.8-1.3-13.6s-2-5.8-4.2-9.3l-1.2.9c-.6-1.8-2.3-6.3-3.1-7.9-2.1-4.1-3.1-6.7-5.3-8.1a19.66,19.66,0,0,0,2.6.2c-1.4-1.3-1.9-2.2-3.5-3.5.5-.4,1.4-.3,2.9,0-2.1-2-2.9-4.9-8.4-7a15.76,15.76,0,0,1,3,.1,9.34,9.34,0,0,0-5.1-3.7c-5.6-1.1-13.4-1.3-17.1,3l-2.1.8-1.1.5c-.6.4-.7,1.1.5,2.8-1.6-.2-2-1.8-2.3-1.6l-1.7,1.7-.9,3.2a1.07,1.07,0,0,0,1.8-.8l3.4-.8c1.2,0,2.4.3,3.9.2l-2.9.9-.1,1,1.7-.4.3,1.4c4.6-1,4.9,3.8,9.7,2.9-2.3-1.8-4.2-4.8-6-5.7,4.8.8,7.4,5.1,12.5,5.3l-.6-1.4c1.8,0,3,1.4,3.6,1.3a7.18,7.18,0,0,1-4.1,1.5l2.9.9c-1.1,1-2.3,1.4-4.6,1a22.9,22.9,0,0,1-5.2,4.4l.2-1.6c-2.2,1.3-3.7,3.6-5.4,4.3l1.3-3c-5.8,5.3-11.4,10.3-13.5,14.1-2.3,4.3-3.1,8.7-2.8,15.9.2,3.9,1.9,14.9,2.2,17.1l1.2-.5c1.4,8.1,5.6,19.4,7.8,23.1l1.3-1.7a10.54,10.54,0,0,0,3.3,6.2,8.44,8.44,0,0,1,.7-2.8c.5,1.6.2,6.4,3,9.1a15.24,15.24,0,0,1,.7-4.3c.5,1.5.6,3.5,1.3,5.1.9,1.8,2,3.7,3,4.2-.1-3.8.5-3.6.6-5.2.1.3,1.5,1.7,2.2,6.5,2.8-2.2,3.9-9.3,3.9-9.3a6,6,0,0,1,1.4,2.7c2.5-2.6,3.2-6,3.9-8.5a9.91,9.91,0,0,1,.4,4.6m2.9,37.7a35.16,35.16,0,0,0,5.6-.2l-.2-1.1-.1-.8h-.1a13.21,13.21,0,0,1-6.4.4,17.63,17.63,0,0,1-2.7-.7c-1-.3-2.6,1.4-3.9,2.7-1.1,1.2-2.5,2.8-3.2,3.5v.4c1.1,1.1,15.2,13.9,16.1,14.7l.7-.1,2.5-2.5L329,279.3l-.1-.6.8-.9.6.1,4.6,4.3,6,5.3,3.8,3.3.6-.6c.6-.6.4-1-1.5-2.9l-9.7-9.7c-1-1-.3-1.4.8-1.4m-21.7,3-14.1,13.3,2.5,2.5h.7c.9-.8,14.9-13.6,16.1-14.7V280c-.7-.7-2.1-2.3-3.2-3.5-1.3-1.3-2.9-3-3.9-2.7s-1.2.3-2.6.7a14.61,14.61,0,0,1-6.4-.4l-.3-.1-.1,1-.2.9c1.5.3,2.2.2,5.8.3,1.1,0,1.8.4.8,1.4l-9.7,9.7c-1.9,1.8-2,2.3-1.5,2.9l.6.6,3.7-3.3,6-5.3,4.5-4.3.6-.1.8.9-.1.5m1.4-32.8-.5-1.9-1.6-1.8-.5-.7.3,2.3,1.2,1.6,1.1.5m-.2,26.7,1.2,1.2c.2-1.4.9-6.2.6-6.7a20.49,20.49,0,0,0-1.8,5.5m-5.5-.4,2.6-1,.5-.1c.4-1.4,1.1-3.6,1.5-4.7l-4.6,5.8m10.3,5.1a44.48,44.48,0,0,0-.3-4.8,8.09,8.09,0,0,0-1.2,3.3l1.5,1.5m.9-12.5a4.27,4.27,0,0,0-2.2-3.2c.1,1.7,2.2,3.2,2.2,3.2m1.4-4h0l1.3-1.4,5.3-3.9,1.1-2.5a6.82,6.82,0,0,1-2.3,2c-1.3.7-4.4,2.7-4.9,3.6l-.4,1.2-.3-.9c-.9-2-3.8-2.8-5.5-4.8-1.1-1.3-1.1-1.8-1.1-1.8a5.7,5.7,0,0,0,.7,3.1,15.48,15.48,0,0,0,3.8,3.1,7.21,7.21,0,0,1,2.3,2.3m-1.8-7.1c0-3.1-3.4-3.5-4.2-6.6-.4,4.4,2.6,4.5,4.2,6.6m1.6,12.4,1.4-.8,2.1-1.9.3-2.2a4.72,4.72,0,0,1-1.3,1.9l-1.6,1.6-.9,1.4m3,1.9a74.45,74.45,0,0,1,.6,7.6h0l1.6-1.6c-.2-.7-.8-4.1-2.2-6m-2.8,11.3,1.7-1.9.1-.1c-.3-2.4-.9-5.4-1.7-6.5a71.71,71.71,0,0,0-.1,8.5m0,1.3.1,2.3,1.1-1.2-1.2-1.1m.7,3.7c1.9,2.1,4.6,4.8,6.3,6.5l1.8-1.8-6.7-6.2-1.4,1.5m8,8.1c1.4,1.4,3.1,3,4.4,4.3l1.9-2.1-4.4-4.1c-.1.1-.8.7-1.9,1.9m1.2-20.8a31.64,31.64,0,0,0-4.2-4.8,43.6,43.6,0,0,1,1.8,4.9l.3-.1.8-.2.9.2h.4m-1.6-25.4a14.29,14.29,0,0,1-2.7,3.2l.4-2.2-2.6,3.4a8.69,8.69,0,0,0-2.4,3.9,10.48,10.48,0,0,1,2.9-2.1c2.7-1.5,3.6-3.7,4.4-6.2m-31.3-27.1a9.52,9.52,0,0,0,4,7.2,25.93,25.93,0,0,0-4-7.2M378.7,139l1.7-2.2a71.48,71.48,0,0,0-31-16.1,80.7,80.7,0,0,0-19.1-1.9c-3.4,0-5.6,1.4-5.6,3.5-2.1-.4-2.7-3.1-3-3.6-.2,1.1-1.3,3.3-2.9,3.6,0-2.1-2.2-3.5-5.6-3.5a80.7,80.7,0,0,0-19.1,1.9,69.05,69.05,0,0,0-30.8,15.6l1.7,2.2a63.43,63.43,0,0,1,25.4-14.2,83,83,0,0,1,22.3-3c4,.2,4.6,2.5,4.1,3.7a6.5,6.5,0,0,0,5-2.4,6.44,6.44,0,0,0,5,2.4c-.5-1.2.1-3.5,4.1-3.7a78,78,0,0,1,22.2,3A69.24,69.24,0,0,1,378.7,139m4.5-8.1c.8,2.9,1.7,6.2,4.2,8.2l1.1.7v.1c0-5.6,1.9-8.7,3.3-12h0a24.41,24.41,0,0,0,10.4,0c-5.3-3.6-4.2-7.6-8.1-12l-1.5-1.4a7.24,7.24,0,0,0-3.2-1.4l-1.8.8c-.5.6-6,6.5-9.7,10.6,3.5-.1,4.3,2.9,5.3,6.4m3.6-19.7a56.73,56.73,0,0,0-16.6-10.8c-18.4-8.1-41.8-8.1-48.5-8.1h0c-6.7,0-30.1,0-48.5,8.1a55.41,55.41,0,0,0-16.6,10.8s8.3,9.3,10.5,11.9a3.9,3.9,0,0,1,.8,4.4c12.8-8.6,27.3-12.9,53.3-13h1.2c25.5.2,40.5,4.6,53.1,13a4,4,0,0,1,.8-4.4l10.5-11.9M255.6,114h0c-.5-.6-1.8-1.7-5,.6-5.7,4.9-3.9,9.4-9.7,13.4a27.23,27.23,0,0,0,5.2.5l2.5-.1,2.8-.4h0c1.5,3.3,3.3,6.3,3.3,11.9,6.9-3.6,4.1-15.4,10.5-15.2-3.8-4.2-9-10.1-9.6-10.7m4.5,23.6c5,6.7,8.8,11.8,9.6,12.8,1.8,2.4,7.8,9.6,7.8,8.7,0-.6-3.7-5.7-6.1-8.9-3.4-4.6-6.9-9.3-10.4-14l-.9,1.4m25.7,44.5c0,4.7.9,8.2,2.4,14,.1-6.1-1-12.3-2.4-14m-3.2-5.4a20.52,20.52,0,0,0,.2,7,23.66,23.66,0,0,0,1.5,4,29.48,29.48,0,0,0-1.7-11m11.8,41.5c.8-2.6,1.7-19.4-4.5-26.6,1.5,6.6,3.6,14.1,4.5,26.6m-18.8,98.6c4.8,1.9,18.2,2.1,24.4,1.3,8-1,14.1-3.4,19.2-7-1.3-1.1-3-2.7-4.6-4.3a32,32,0,0,1-6.6,4.5c-9.6,3.9-22.1,4.8-22.1,4.8s16.4-3.7,22.1-6.8a36.35,36.35,0,0,0,5.1-3.9c-2.1-2-4.2-4.1-5.8-5.6a22.54,22.54,0,0,1-3,2.4c-2.1,1.5-5.2,2.6-7.6,3.6a109.17,109.17,0,0,0-21.1,11m40.1-.8.6,1.7.8,1.8a12.54,12.54,0,0,0,2.4-3.5l1.7-3.4-.1-.1-1.5,1.1-2.2,1.4-1.6.9-.1.1m32.6-97.8a140.07,140.07,0,0,1,4.5-26.6c-6.2,7.3-5.3,24-4.5,26.6m1.5-27.8c2-5.9.3-8.9-.8-9.5-.1,2.7.6,4,.8,9.5m5,5.9c1.5-5.8,2.4-9.3,2.4-14-1.4,1.7-2.6,7.9-2.4,14m3.9-8.3a27.4,27.4,0,0,0,1.5-4,20.52,20.52,0,0,0,.2-7,28.77,28.77,0,0,0-1.7,11m15.8-38c.7-1,4.2-5.6,8.9-11.9l-.9-1.2c-3.2,4.3-6.5,8.7-9.7,13-2.3,3.2-6,8.3-6.1,8.8,0,1,6-6.3,7.8-8.7m27.1-31-1.7,2.2c1.5,2.6,3,5.4,7.2,7.6-1.7-3.4-3.5-6.6-5.5-9.8m-3.9-2.3.8,1.4c9.5-12.7,18.3-24.3,18.3-24.3a67,67,0,0,1-9,5.1c.5,2.9-1.3,6.5-2,7.3-.3.3-3.4,4.4-8.1,10.5m-123-33.2a3.41,3.41,0,0,0-1.6,2.9,7.42,7.42,0,0,0-1.9,7.9,64,64,0,0,0-25.6,18.8L247,115c7.1-9.1,16.6-15.6,28.1-20-.9-1.3-2.2-4.3,1.2-7.6h0c5,.6,6.2,3.6,6.5,5.2a140,140,0,0,1,31.3-4.3c.4-8.1,6.2-10.1,6.2-10.1a2.64,2.64,0,0,1,1.4-2.1h0a2.81,2.81,0,0,1,1.4,2.1s5.8,2,6.2,10.1a140,140,0,0,1,31.3,4.3c.3-1.5,1.5-4.5,6.5-5.2h0c3.3,3.3,2.1,6.3,1.1,7.6,11.5,4.3,21.3,11.1,28.4,20.2l1.5-1.9a67.13,67.13,0,0,0-25.9-19,7.42,7.42,0,0,0-1.9-7.9,3.2,3.2,0,0,0-1.6-2.9h0l-3.3,1.3a9.35,9.35,0,0,0-7.3,5,136.53,136.53,0,0,0-26.4-3.5,11,11,0,0,0-6.6-9.6,3.54,3.54,0,0,0-7,0,10.93,10.93,0,0,0-6.6,9.6,146.07,146.07,0,0,0-26.4,3.5,9.51,9.51,0,0,0-7.2-5l-3.2-1.3M245,117.6l.8-1.3c-4.3-5.7-7.2-9.5-7.5-9.8-.7-.9-2.5-4.5-2-7.3a67,67,0,0,1-9-5.1s8.4,11.2,17.7,23.5m-8.9,11.3a18.75,18.75,0,0,0,5.2-4.6,17.64,17.64,0,0,0,2-3.4l-1.8-2.3c-1.9,3.3-3.7,6.8-5.4,10.3m-14.9,69.7c1.1,1.6,4.3,5.3,26.6,18,.3-8.1,2.4-35.7,16.3-68.7-2-2.6-3.9-5.2-5.8-7.8a12.75,12.75,0,0,1-6,3.3,25.52,25.52,0,0,0-3-13.2A50.09,50.09,0,0,1,236,129c-8.8,18.9-13.2,40.8-14.8,69.6m79.5,132.3.1-.3c.7-1.8,4.6-11.1,4.6-11.1l-.5.1a51.46,51.46,0,0,1-5.3.7c-1,.1-16.6,2.5-27.8-2.8a107.25,107.25,0,0,1,9.7-6.7l.2-1.4a14,14,0,0,1-6.9,1.6,13.91,13.91,0,0,1,1.2-6.1,10.12,10.12,0,0,1-4.3,0,61.62,61.62,0,0,1,5.1-11,101.12,101.12,0,0,1,9.8-13.5l-.4-1.6.2-1.6a8.17,8.17,0,0,1,2.2-4l.7-.7-1.3-1.1-1.1.8a9.58,9.58,0,0,1-2.8.9c-1.4,0-2.3-.2-2.8-1l-.1-.2-2.1-1.8-.1-.5-2.1-.3c-1-.9.4-5.2,5.1-9.7a31.48,31.48,0,0,1,9.4-6.3c2.2-1,3.6.9,2.5,2.3a7,7,0,0,0-1,7.3c1.4-.5,1.9-.7,2.1-.8l1.9-1.3.2-.5-2,.2c1-2.5-.6-8.6.5-12.5l-1.4.8a49.89,49.89,0,0,1-.3-12.1c0-.8-1.2-2.1-2.6-3.6a69.93,69.93,0,0,1-5.3,7.5c-2.3,3-6.4,5.7-8.5,15.3v.1l-.3,1.1h0l-.4,1.2-.3.8-.5,1.2a11.5,11.5,0,0,0-1.3,4.8h0c.2,6.1-.1,18.6-1.5,25.6A28.49,28.49,0,0,1,270,300l-.4-.3a22.76,22.76,0,0,1-3.7,8.7s-1.9-4.1-5.4-35.4c-3.9-34.5-5.8-70.4-5.8-70.4a55.36,55.36,0,0,1,2.7-19.3c3-8.8,8.6-17.1,11.9-20.6a8.49,8.49,0,0,1,3.2-2.1l1.1-.2h0c-2.4-3.2-4.9-6.5-7.3-9.7-15.2,37.5-15.4,67.3-15.4,67.6l-.1,3.6-3-1.7c-17-9.4-22.5-13.4-26.8-17.2-.2,3.7-.5,15.9-.5,15.9v7.6c0,14.6,2.6,50.5,14.5,75.1a71.73,71.73,0,0,0,14.2,18.8,56.37,56.37,0,0,0,21.1,12.4l1.8.6c9,2.9,18.9,2.3,28.6-2.5m-.6,10.1a7.81,7.81,0,0,1,8.2-1.2,155,155,0,0,1,2.4-19.2l-1.2.9-.9.6h-.2l-.4-.5c-1.3,3-7.9,19.3-7.9,19.4m34.5,3.1c.2-5.1-2.2-20-3.2-26.1h0l-1.1-.4-1,2.5a11.07,11.07,0,0,1-2.1,3.2,14.79,14.79,0,0,1-5.3-6.2,14.26,14.26,0,0,1-5.2,6.1c-.3,0-1.4-1.6-2.2-3.2l-1.1-2.6-.1.2c-1,6.3-3.2,21.5-3,26.5-6.7-4.4-10.8,0-9.4,3.1l.4.7a4.3,4.3,0,0,0,3.4,1.8,21.12,21.12,0,0,1,8.3,1.9,26.55,26.55,0,0,1,9.5,7.8,26.55,26.55,0,0,1,9.5-7.8,21.49,21.49,0,0,1,8.3-1.9,4.39,4.39,0,0,0,3.3-1.8l.5-.7c1.4-3.1-2.7-7.5-9.5-3.1M345,341c0-.1-7.1-17.4-7.9-19.3h0l-.3.4h-.2a16.2,16.2,0,0,1-2.6-1.9,108.65,108.65,0,0,1,2.8,19.6A7.81,7.81,0,0,1,345,341m77.9-121.8c-.1-4.9-.4-12.2-.5-15.9-4.4,3.8-9.8,7.8-26.9,17.2l-3,1.7-.1-3.6c0-.3-.2-29.9-15.2-67.2-2.3,3.1-4.7,6.2-7,9.4l.1.1.6.2a7.55,7.55,0,0,1,3,2c3.4,3.5,8.8,11.9,11.9,20.6a57.44,57.44,0,0,1,2.7,19.3h0s-2,36-5.8,70.4c-3.5,31.3-5.4,35.4-5.4,35.4a23.4,23.4,0,0,1-3.7-8.6l-.3.3s-2.1-3.1-3.3-9.3c-1.4-7-1.6-19.6-1.5-25.6h0a11.19,11.19,0,0,0-1.3-4.8,17.61,17.61,0,0,1-1.5-4.4v-.1c-2.1-9.6-6.3-12.4-8.5-15.3-2.9-3.8-4.6-6-5.7-8.2-1.7,1.6-3,3.2-3,4.1.6,5.8,1.1,9.9.2,12.9l-1.2-1c.4,3.9-1.4,8.3-.3,11.8l-2.3-.3.3.6,1.1,1,.8.4c.2.1.8.3,2.3.8a6.82,6.82,0,0,0-1-7.2c-1.1-1.3.2-3.2,2.5-2.2a32.62,32.62,0,0,1,9.3,6.2c4.7,4.5,6.1,8.8,5.1,9.7l-2.3.2-.1.5-2,1.8-.1.2c-.5.7-1.3,1-2.8,1a5.61,5.61,0,0,1-2.8-.9l-.9-.7-1.3,1.1.5.6a9,9,0,0,1,2.2,4l.1.9a129.7,129.7,0,0,1,11.8,16,62.81,62.81,0,0,1,5.1,10.9,8.63,8.63,0,0,1-4.3,0,15.53,15.53,0,0,1,1.2,6.1,13.05,13.05,0,0,1-7-1.5l.4,2.4c3.5,2.3,6.1,4.4,7.5,5.4-11.3,5.3-27.6,2.9-27.9,2.8l-2.5-.4-.5-.1s4,9.6,4.7,11.1c7.2,3.3,13.8,5.4,24.1,3.7a39.06,39.06,0,0,0,6.1-1.6c4.5-1.5,12.9-6.4,19.3-12.5A72.77,72.77,0,0,0,408.3,302c12.4-24.4,14.5-60.5,14.5-75.1.1-4.9.1-7.5.1-7.7m-89.6-10c0-.1,5-4.8,4.8-10.9a10.7,10.7,0,0,1-4.8,5.8,7.24,7.24,0,0,1-2.7-3.8c-.7,6.1,2.7,8.9,2.7,8.9m-10.1-39.5c-3,3.2-1.2,5.9-1.2,5.9s3.7-3.9,1.2-5.9m-1.1,11.1c-3.3,5,0,10.2,0,10.2s2.3-7,0-10.2m-8-7.2c-4.9,3.7-2.6,7.1-1.7,9a33.5,33.5,0,0,0,1.7-9m1.2,45.4a16.34,16.34,0,0,1-4.5-4.6c.5,2.7,4.2,8.1,6,9.2.6-1,2.8-5.4.9-12.3-.8,4.2-1.6,6.3-2.4,7.7m-3.6-34.2c-3.3,4.1,1.8,9.2,1.8,9.3s.4-7.8-1.8-9.3m5.3,21.8c.8-1.8,3.2-5.3,2-11.1a8.69,8.69,0,0,1-3.2,6.3,7.84,7.84,0,0,1-2.8-3.5c.3,5.3,2.3,6.8,4,8.3m-2.6,27.5c-.5-1.6-1.3-6.9-3.3-9.2-.8,3.9,1.7,7.5,3.3,9.2m61.2-127.4c-1.5-.4-3-.8-3.5-1.6l2,.6.9-.8c-1.5-1.3-4-.5-4.5.8l1.4.8-1.9.9c2.4-.2,4.6.4,5.6-.7m-4.1,2c-1.7.8-2,1.3-2.9,3.1-1,2.3-1.8,4.5-2.9,6.5l2.2-.7c2.9-1.8,5-6.8,6.2-9.7l-2.6.8m-5.2,1.8c-.5,1.6-1.7,2.6-2.4,3.6a91.44,91.44,0,0,0-18.2-4.4c-1.3,1.5-3.4,3.5-5.5,4a26.37,26.37,0,0,1-7.3-2.1,9.49,9.49,0,0,0,2.4,0,16.32,16.32,0,0,0,7.8-2.3c-4.3-.7-5.4-1.8-3.3-4.6,1-1.2,2.5-3.5,4.9-2.9,1.8.5,2.3,3,2,5a81.27,81.27,0,0,1,16.5,4.1c.3-1.4-.6-2.1-1.2-3.1l2.7-2.3c1.3.6,2.1,3.5,1.6,5m-23.9-6.4-1.3,1.4a2.94,2.94,0,0,0,2.3,1l.6.1c.5-1.3-.6-2.9-1.6-2.5m6.7,7.2-2.7,1.5,2.1,2.1c1.1-.6,1.6-.9,2.8-1.5l-2.2-2.1M330,95.8,327.5,94l-2.4,1.9,2.4,1.8a18.08,18.08,0,0,1,2.5-1.9m-41.8,18.6,2.8,1.2,2-2.3c-1.1-.5-1.8-.8-2.9-1.2l-1.9,2.3m45.7-6.5c-12-.7-35.5.6-47,3.8l-2.3-4.1c-3.1-3.3-4.3.3-4.3.7,3.9.2,4.5,2.2,4.5,2.2-.9,1.7-1.6,2.2-3.7,3.7a14.27,14.27,0,0,1-6.6,2.3c-7.3.4-5.3-7.2-.9-10.3-.6.7-3.1,4.7-1.5,6.7,1.8,2.3,8.5.4,10.1-1.6-.9-.8-2.5-1.1-4.9-.9a10.41,10.41,0,0,1,4.1-7.2,10.55,10.55,0,0,1,6.1,5.2c10.6-2.9,30-3.7,31-3.7-.2-1.8-.9-8.8-.9-9.2a2.21,2.21,0,0,1,1.4-2.1,5.26,5.26,0,0,0,3.4,2.7l-2.2,1.8c.1,1.4.2,3.9.3,4.9a46.86,46.86,0,0,1,7.1-2.5l3.2-.3,2.8,1.2,1.2,2.2a22.25,22.25,0,0,1-.9,4.5m-2.5-4.6c-1.5-2.4-7.1-.2-10.6,1.2,2,0,3.8-.1,6,0,.9,0,3.2,0,4.7.1l-.1-1.3m-50.1,13-2.2-.6-1.5,2.5c1.1.3,1.8.6,3,.9l1.1-1.7,2.1.7,1.6-2.5a28,28,0,0,0-3.1-.9l-1,1.6"/></svg>