<?xml version="1.0" encoding="utf-8"?>
<!-- Generator: Adobe Illustrator 19.2.1, SVG Export Plug-In . SVG Version: 6.00 Build 0)  -->
<svg version="1.1" id="layer" xmlns="http://www.w3.org/2000/svg" xmlns:xlink="http://www.w3.org/1999/xlink" x="0px" y="0px"
	 viewBox="0 0 652 652" style="enable-background:new 0 0 652 652;" xml:space="preserve">
<style type="text/css">
	.st0{fill:#040002;}
	.st1{fill:#FFFFFF;}
	.st2{fill:#E2011F;}
</style>
<path class="st0" d="M60.2,477.4h10.7c4.4,0,7.6,1.6,9.3,5.3c1.4,2.9,1.6,9.9,1.6,11c0,7.4-0.7,11.7-2.1,14c-1.9,3-5.4,4.5-11.4,4.5
	h-8 M64.7,508.2h4.2c6.1,0,8.4-2.3,8.4-10.4v-7c0-7-2.2-9.6-6.8-9.6h-5.8V508.2z"/>
<polyline class="st0" points="89.5,512.1 89.5,477.4 107.4,477.4 107.4,481.2 93.9,481.2 93.9,492.4 106.4,492.4 106.4,496.2 
	93.9,496.2 93.9,508.2 107.7,508.2 107.7,512.1 "/>
<path class="st0" d="M114.1,512.1v-34.7h10.3c4.7,0,9.7,1.7,9.7,9.9c0,7.9-6.1,9.5-9.7,9.5h-5.8v15.3 M118.5,492.9h4.9
	c1.8,0,6.2-0.5,6.2-5.9c0-5.3-4-5.8-4.9-5.8h-6.1V492.9z"/>
<path class="st0" d="M145.7,477.4h5.6l11.3,34.7h-5l-2.5-8.3h-13.4l-2.6,8.3h-4.5 M148.4,481.4h-0.1l-5.4,18.5H154L148.4,481.4z"/>
<path class="st0" d="M171.6,496.1v15.9h-4.4v-34.7h12c6.2,0,8.3,4.3,8.3,8.6c0,4.1-2.2,7.2-6.3,7.9v0.1c4,0.6,5.4,2,5.7,8.9
	c0,1.5,0.5,6.9,1.2,9.1h-4.6c-1.3-2.4-1-6.9-1.4-11.5c-0.3-4.2-3.8-4.4-5.2-4.4 M171.6,492.3h6.6c3.2,0,4.7-2.7,4.7-5.8
	c0-2.5-1.2-5.3-4.7-5.3h-6.7V492.3z"/>
<polyline class="st0" points="213.4,477.4 213.4,481.2 204.3,481.2 204.3,512.1 199.9,512.1 199.9,481.2 190.7,481.2 190.7,477.4 
	"/>
<polyline class="st0" points="222.2,512.1 218,512.1 218,477.4 225.2,477.4 234,506.5 234,506.5 242.9,477.4 250.2,477.4 
	250.2,512.1 245.8,512.1 245.8,481.2 245.7,481.2 236,512.1 231.8,512.1 222.3,481.2 222.2,481.2 "/>
<polyline class="st0" points="258,512.1 258,477.4 275.9,477.4 275.9,481.2 262.4,481.2 262.4,492.4 274.9,492.4 274.9,496.2 
	262.4,496.2 262.4,508.2 276.2,508.2 276.2,512.1 "/>
<polyline class="st0" points="306.1,477.4 306.1,512.1 300,512.1 286.3,482 286.2,482 286.2,512.1 282.3,512.1 282.3,477.4 
	288.6,477.4 302.1,507.1 302.2,507.1 302.2,477.4 "/>
<polyline class="st0" points="333.6,477.4 333.6,481.2 324.4,481.2 324.4,512.1 320,512.1 320,481.2 310.9,481.2 310.9,477.4 "/>
<path class="st0" d="M348.7,499.4V488c0-6.9,3.6-11.3,10.9-11.3c7.4,0,10.9,4.4,10.9,11.3v11.4c0,9.6-3.6,13.4-10.9,13.4
	C352.2,512.8,348.7,509,348.7,499.4 M366,499.6v-11.7c0-7.3-5-7.5-6.4-7.5c-1.4,0-6.4,0.2-6.4,7.5v11.7c0,7.6,2.2,9.5,6.4,9.5
	C363.8,509.1,366,507.1,366,499.6"/>
<polyline class="st0" points="377.9,512.1 377.9,477.4 395.1,477.4 395.1,481.2 382.3,481.2 382.3,492.4 394.4,492.4 394.4,496.2 
	382.3,496.2 382.3,512.1 "/>
<path class="st0" d="M425.5,486.9c0-2-0.1-3.9-1-5c-0.9-1.1-3-1.5-3.9-1.5c-3.7,0-5.1,2.2-5.3,2.7c-0.1,0.4-1,1.2-1,7.2v9.3
	c0,8.5,2.8,9.5,6.2,9.5c1.3,0,5.4-0.5,5.5-7.3h4.6c0.2,11-7.5,11-9.8,11c-4.3,0-11-0.3-11-13.8v-9.8c0-9.8,4.3-12.6,11.2-12.6
	c6.9,0,9.5,3.6,9.1,10.3"/>
<path class="st0" d="M436.8,477.4h4.4v22.2c0,7.6,2.3,9.5,6.5,9.5s6.5-1.9,6.5-9.5v-22.2h4.4v22c0,9.6-3.6,13.4-10.9,13.4
	c-7.4,0-10.9-3.8-10.9-13.4"/>
<polyline class="st0" points="466.3,512.1 466.3,477.4 470.7,477.4 470.7,508.2 483.5,508.2 483.5,512.1 "/>
<polyline class="st0" points="504.2,477.4 504.2,481.2 495.1,481.2 495.1,512.1 490.7,512.1 490.7,481.2 481.5,481.2 481.5,477.4 
	"/>
<path class="st0" d="M508.6,477.4h4.4v22.2c0,7.6,2.3,9.5,6.5,9.5s6.5-1.9,6.5-9.5v-22.2h4.4v22c0,9.6-3.6,13.4-10.9,13.4
	c-7.4,0-10.9-3.8-10.9-13.4"/>
<path class="st0" d="M542.5,496.1v16h-4.4v-34.7h12c6.2,0,8.3,4.3,8.3,8.6c0,4.1-2.3,7.2-6.3,7.9v0.1c4,0.6,5.4,2,5.7,8.9
	c0,1.5,0.5,6.9,1.2,9.1h-4.6c-1.3-2.4-1-6.9-1.4-11.5c-0.3-4.2-3.7-4.4-5.2-4.4 M542.5,492.3h6.6c3.2,0,4.7-2.7,4.7-5.8
	c0-2.5-1.3-5.3-4.7-5.3h-6.7V492.3z"/>
<polyline class="st0" points="564.9,512.1 564.9,477.4 582.8,477.4 582.8,481.2 569.3,481.2 569.3,492.4 581.8,492.4 581.8,496.2 
	569.3,496.2 569.3,508.2 583,508.2 583,512.1 "/>
<path class="st0" d="M189.4,536.1h5.6l11.3,34.7h-4.9l-2.5-8.3h-13.4l-2.6,8.3h-4.5 M192.1,540.1H192l-5.4,18.5h11.1L192.1,540.1z"
	/>
<polyline class="st0" points="235,536 235,570.8 229,570.8 215.3,540.7 215.1,540.7 215.1,570.8 211.2,570.8 211.2,536 217.5,536 
	231,565.8 231.1,565.8 231.1,536 "/>
<path class="st0" d="M243.1,536h10.7c4.4,0,7.6,1.6,9.3,5.3c1.4,2.9,1.6,9.9,1.6,11c0,7.4-0.7,11.7-2.1,14c-1.9,3-5.4,4.5-11.5,4.5
	h-8 M247.5,566.9h4.2c6.1,0,8.4-2.3,8.4-10.4v-7c0-7-2.2-9.6-6.8-9.6h-5.8V566.9z"/>
<polyline class="st0" points="302.5,536 302.5,539.9 293.4,539.9 293.4,570.8 289,570.8 289,539.9 279.8,539.9 279.8,536 "/>
<path class="st0" d="M307,558.1v-11.4c0-6.9,3.6-11.3,10.9-11.3c7.4,0,10.9,4.4,10.9,11.3v11.4c0,9.6-3.6,13.4-10.9,13.4
	C310.5,571.5,307,567.7,307,558.1 M324.3,558.3v-11.7c0-7.3-5-7.5-6.4-7.5c-1.4,0-6.4,0.2-6.4,7.5v11.7c0,7.6,2.2,9.5,6.4,9.5
	C322.1,567.8,324.3,565.8,324.3,558.3"/>
<path class="st0" d="M336.3,536h4.4v22.2c0,7.6,2.3,9.5,6.5,9.5s6.5-1.9,6.5-9.5V536h4.4v22c0,9.6-3.6,13.4-10.9,13.4
	c-7.4,0-10.9-3.8-10.9-13.4"/>
<path class="st0" d="M370.2,554.8v15.9h-4.4v-34.7h12c6.2,0,8.3,4.3,8.3,8.6c0,4.1-2.3,7.2-6.3,7.9v0.1c4,0.6,5.4,2,5.7,9
	c0,1.5,0.5,6.9,1.2,9.1h-4.6c-1.3-2.4-1-6.9-1.4-11.5c-0.3-4.3-3.7-4.4-5.2-4.4 M370.2,550.9h6.6c3.2,0,4.7-2.7,4.7-5.8
	c0-2.5-1.3-5.3-4.7-5.3h-6.7V550.9z"/>
<rect x="393.1" y="536.1" class="st0" width="4.4" height="34.7"/>
<path class="st0" d="M409.3,560.4v1c0,4.7,3,6.2,5.8,6.2c3.5,0,6.2-1.5,6.2-5.6c0-7.7-15.6-6.8-15.6-17.3c0-6.1,4.4-9.4,10.2-9.4
	c6.3,0,9.9,3.1,9.6,10.1H421c0-3.8-1.2-6.3-5.4-6.3c-2.6,0-5.3,1.3-5.3,5.1c0,7.7,15.6,6.6,15.6,17.6c0,7.3-5.1,9.7-10.8,9.7
	c-10.3,0.1-10.3-7.7-10.2-11.1"/>
<polyline class="st0" points="436.8,570.8 432.7,570.8 432.7,536.1 439.9,536.1 448.6,565.2 448.7,565.2 457.5,536.1 464.8,536.1 
	464.8,570.8 460.4,570.8 460.4,539.9 460.3,539.9 450.6,570.8 446.4,570.8 436.9,539.9 436.8,539.9 "/>
<path class="st0" d="M80.1,437.3l1,1.1h2.7v4.2h-3.2c-1.4,0-2.5-0.5-3.4-1.4c-0.9-0.9-1.3-2.2-1.3-4l-0.1-17.8
	c-1,0.5-2.2,1.1-3.5,1.8c-1.3,0.7-2.5,1.6-3.7,2.6c-1.1,1-2.1,2.2-2.9,3.6c-0.8,1.3-1.2,2.9-1.2,4.6c0,2.4,0.7,4.1,2.2,5
	c1.5,0.9,3.8,1.5,6.9,1.8l-0.3,4.2c-2.8-0.2-5-0.6-6.7-1.4c-1.7-0.8-3-1.7-4-2.7c-0.9-1.1-1.5-2.2-1.9-3.4c-0.3-1.2-0.5-2.4-0.5-3.6
	c0-3,0.8-5.6,2.4-7.8c1.6-2.2,3.4-4.1,5.6-5.6c2.2-1.5,4.3-2.7,6.5-3.6c2.2-0.9,4-1.5,5.4-1.9 M70.7,406.5l-0.8,2l-2,0.8l-2-0.8
	l-0.8-2l0.8-1.9l2-0.8l2,0.8L70.7,406.5 M79.9,406.5l-0.8,2l-2,0.8l-1.9-0.8l-0.8-2l0.8-1.9l1.9-0.8l2,0.8L79.9,406.5"/>
<polyline class="st0" points="94.7,442.7 83.7,442.7 81.7,441.9 80.9,440.6 81.7,439.2 83.7,438.5 94.7,438.5 "/>
<path class="st0" d="M94.7,442.7l-2-0.7l-0.8-1.4l0.8-1.4l2-0.7H116c-0.6-1.1-1-2.5-1.3-4.3c-0.3-1.8-0.5-4-0.7-6.8
	c-0.2-2-0.5-3.6-1-4.7c-0.5-1.1-1.1-2-1.8-2.5L109,419l-2.4-0.2c-1.9,0-3.9,0.7-5.9,1.9l-2.6-3.3c1-0.8,2.3-1.4,3.7-2
	c1.5-0.6,3.1-0.8,4.8-0.8c3.6,0,6.3,1,8.2,3.1c1.9,2.1,3,5.2,3.4,9.4c0.3,3.7,0.7,6.3,1,8c0.3,1.6,1,2.6,2.1,2.9l2.3,0.7l-0.1,4.1"
	/>
<polyline class="st0" points="129.4,442.7 129.4,400 133.6,400 133.6,438.5 137.3,438.5 137.3,442.7 "/>
<polyline class="st0" points="144.5,442.7 137.3,442.7 135.2,441.9 134.4,440.6 135.2,439.2 137.3,438.5 144.5,438.5 "/>
<path class="st0" d="M144.5,442.7l-2-0.7l-0.8-1.4l0.8-1.4l2-0.7h11v-20.8h4.2v20.8h3.7v4.2 M149.2,454.2l-1.9-0.8l-0.8-2l0.8-2
	l1.9-0.8l2,0.8l0.8,2l-0.8,2L149.2,454.2 M157.5,454.2l-1.9-0.8l-0.8-2l0.8-2l1.9-0.8l2,0.8l0.8,2l-0.8,2L157.5,454.2"/>
<polyline class="st0" points="172.4,442.7 163.5,442.7 161.5,441.9 160.6,440.6 161.5,439.2 163.5,438.5 172.4,438.5 "/>
<path class="st0" d="M206.6,438.5v4.2h-34.3l-2-0.7l-0.8-1.4l0.8-1.4l2-0.7h1.1c1.8,0,2.9-0.2,3.2-0.6l0.5-2v-18.5h4.2v21.1h6.8
	v-21.1h4.2v21.1h6.1v-21.1h4.4v21.1"/>
<polyline class="st0" points="221.3,442.7 206.6,442.7 204.6,442 203.8,440.6 204.6,439.2 206.6,438.5 221.3,438.5 "/>
<polyline class="st0" points="224.9,399.7 229.1,399.7 229.1,442.7 221.3,442.7 219.2,441.9 218.4,440.6 219.2,439.2 221.3,438.5 
	224.9,438.5 "/>
<rect x="235.7" y="400" class="st0" width="4.2" height="42.7"/>
<path class="st0" d="M265.7,444.8c0,2-0.1,3.9-0.4,5.7c-0.3,1.8-0.8,3.5-1.5,4.9c-0.8,1.4-1.9,2.6-3.3,3.5c-1.4,0.9-3.3,1.4-5.7,1.4
	V456c1.7,0,3-0.4,3.9-1c0.9-0.7,1.6-1.6,2-2.7c0.4-1.1,0.7-2.5,0.8-4c0.1-1.5,0.1-3.1,0.1-4.7v-0.9h-2.3c-4.4,0-7.8-1-10.3-2.9
	c-2.4-1.9-3.7-4.6-3.7-7.8c0-2.3,0.5-4.4,1.5-6.4c1-2,2.4-3.8,4.2-5.3c1.8-1.6,4-2.8,6.5-3.8c2.5-1,5.2-1.6,8.2-1.9 M261.5,438.5
	v-18.9c-3.6,1-6.5,2.5-8.6,4.7c-2.2,2.1-3.2,4.6-3.2,7.5c0,2.1,0.8,3.7,2.5,4.9c1.6,1.2,4.2,1.8,7.8,1.8H261.5z"/>
<path class="st0" d="M304.3,437.3l1,1.1h2.7v4.2h-3.3c-1.4,0-2.5-0.5-3.4-1.4c-0.8-0.9-1.3-2.2-1.3-4l-0.1-17.8
	c-1,0.5-2.1,1.1-3.4,1.8c-1.3,0.7-2.5,1.6-3.7,2.6c-1.1,1-2.1,2.2-2.9,3.6c-0.8,1.3-1.2,2.9-1.2,4.6c0,2.4,0.7,4.1,2.2,5
	c1.5,1,3.8,1.5,6.9,1.8l-0.3,4.2c-2.8-0.2-5-0.6-6.7-1.4c-1.7-0.8-3-1.7-4-2.7c-0.9-1.1-1.5-2.2-1.9-3.4c-0.3-1.2-0.5-2.4-0.5-3.6
	c0-3,0.8-5.5,2.4-7.8c1.6-2.2,3.4-4.1,5.6-5.6c2.2-1.5,4.3-2.7,6.6-3.6c2.2-0.9,4-1.5,5.4-1.9 M295,406.5l-0.8,2l-2,0.8l-2-0.8
	l-0.8-2l0.8-1.9l2-0.8l2,0.8L295,406.5 M304.1,406.5l-0.8,2l-2,0.8l-2-0.8l-0.8-2l0.8-1.9l2-0.8l2,0.8L304.1,406.5"/>
<polyline class="st0" points="318.9,442.7 308,442.7 305.9,442 305.1,440.6 305.9,439.2 308,438.5 318.9,438.5 "/>
<path class="st0" d="M318.9,442.7l-2-0.7l-0.8-1.4l0.8-1.4l2-0.7h8.1c-3.5-2.4-5.3-5.8-5.3-10.2c0-2,0.4-3.9,1.2-5.5
	c0.8-1.6,1.9-3,3.4-4.1c1.5-1.1,3.2-2,5.2-2.5c2-0.6,4.2-0.9,6.7-0.9l2.4,0.1l2.6,0.3v26.9 M326,428.4c0,2.7,1.1,4.9,3.2,6.6
	c2.1,1.7,5.4,2.9,9.8,3.5v-19h-0.3l-0.2,0l-0.3,0c-1.5,0-2.9,0.1-4.4,0.4s-2.8,0.7-3.9,1.3c-1.1,0.7-2.1,1.6-2.8,2.7
	C326.3,425.1,326,426.6,326,428.4 M339.2,405.3l-0.8,1.9l-2,0.8l-2-0.8l-0.8-1.9l0.8-2l2-0.8l2,0.8L339.2,405.3"/>
<polyline class="st0" points="349.7,442.7 349.7,400 354,400 354,438.5 357.6,438.5 357.6,442.7 "/>
<polyline class="st0" points="372.3,442.7 357.6,442.7 355.6,442 354.8,440.6 355.6,439.2 357.6,438.5 372.3,438.5 "/>
<path class="st0" d="M372.3,442.7l-2-0.7l-0.8-1.4l0.8-1.4l2-0.7h5.8c-0.9-1.2-1.7-2.7-2.2-4.3c-0.5-1.6-0.8-3.4-0.8-5.2
	c0-1.9,0.3-3.7,0.8-5.4c0.6-1.7,1.4-3.2,2.4-4.4c1-1.3,2.2-2.3,3.5-3c1.4-0.7,2.8-1.1,4.3-1.1c1.5,0,2.9,0.4,4.3,1.1
	c1.3,0.7,2.5,1.7,3.5,3c1,1.3,1.8,2.8,2.4,4.4c0.6,1.7,0.8,3.5,0.8,5.4c0,1.8-0.3,3.6-0.8,5.2c-0.5,1.6-1.3,3.1-2.2,4.3h5.8v4.2
	 M384.3,407.3l-0.8,1.9l-2,0.8l-1.9-0.8l-0.8-1.9l0.8-2l1.9-0.8l2,0.8L384.3,407.3 M379.3,428.9c0,2.4,0.6,4.6,1.7,6.4
	c1.1,1.8,2.5,2.9,4.2,3.2h1.7c1.7-0.3,3.1-1.4,4.2-3.2c1.1-1.8,1.7-3.9,1.7-6.4c0-1.3-0.2-2.5-0.5-3.7c-0.4-1.2-0.8-2.2-1.5-3.1
	l-2.2-2.1l-2.6-0.8l-2.6,0.8l-2.2,2.1c-0.6,0.9-1.1,1.9-1.5,3.1C379.5,426.4,379.3,427.6,379.3,428.9 M393.5,407.3l-0.8,1.9l-2,0.8
	l-2-0.8l-0.8-1.9l0.8-2l2-0.8l2,0.8L393.5,407.3"/>
<polyline class="st0" points="407.3,442.7 400,442.7 398,442 397.2,440.6 398,439.2 400,438.5 407.3,438.5 "/>
<path class="st0" d="M407.2,442.7l-2-0.7l-0.8-1.4l0.8-1.4l2-0.7h11v-20.7h4.2v20.7h3.7v4.2 M412,413.2l-1.9-0.8l-0.8-2l0.8-1.9
	l1.9-0.8l2,0.8l0.8,1.9l-0.8,2L412,413.2 M418.9,403.7l-0.8,2l-2,0.9l-1.9-0.9l-0.8-2l0.8-1.9l1.9-0.8l2,0.8L418.9,403.7
	 M420.3,413.2l-1.9-0.8l-0.8-2l0.8-1.9l1.9-0.8l1.9,0.8l0.8,1.9l-0.8,2L420.3,413.2"/>
<polyline class="st0" points="440.8,442.7 426.2,442.7 424.2,442 423.4,440.6 424.2,439.2 426.2,438.5 440.8,438.5 "/>
<polyline class="st0" points="444.5,399.7 448.7,399.7 448.7,442.7 440.8,442.7 438.8,441.9 438,440.6 438.8,439.2 440.8,438.4 
	444.5,438.4 "/>
<rect x="455.3" y="400" class="st0" width="4.2" height="42.7"/>
<path class="st0" d="M497.9,442.7h-4.5c-1.4,0-3-0.2-4.8-0.6c-1.8-0.4-3.4-1-5-1.9c-1.5-0.9-2.8-2-3.9-3.5c-1.1-1.4-1.6-3.2-1.6-5.3
	c0-1.9,0.4-3.7,1.1-5.3c0.7-1.6,1.7-3,2.9-4.3c1.2-1.3,2.5-2.4,4-3.4c1.5-1,3-1.8,4.4-2.5c1.5-0.7,2.8-1.2,4.1-1.6
	c1.3-0.4,2.3-0.7,3-0.8 M493.6,438.3v-18.9c-1,0.4-2.1,1-3.4,1.7c-1.3,0.7-2.5,1.6-3.7,2.6c-1.1,1-2.1,2.1-2.9,3.4
	c-0.8,1.3-1.2,2.8-1.2,4.4c0,1.2,0.3,2.3,1.1,3.2l2.7,2.1c1.1,0.6,2.2,0.9,3.5,1.1c1.2,0.2,2.4,0.3,3.5,0.3H493.6z M489.2,406.5
	l-0.8,1.9l-1.9,0.8l-2-0.8l-0.8-1.9l0.8-2l2-0.8l1.9,0.8L489.2,406.5 M498.4,406.5l-0.8,1.9l-2,0.8l-1.9-0.8l-0.8-1.9l0.8-2l1.9-0.8
	l2,0.8L498.4,406.5"/>
<path class="st0" d="M509.4,444.6c0,1.8-0.1,3.6-0.3,5.4c-0.2,1.8-0.7,3.5-1.5,5.1c-0.8,1.5-1.9,2.7-3.3,3.7c-1.5,0.9-3.5,1.4-6,1.4
	v-4.2c1.6,0,2.8-0.3,3.8-1l2.1-2.6c0.5-1.1,0.7-2.3,0.9-3.6c0.1-1.4,0.1-2.8,0.1-4.2v-26.9h4.3v20.8h3.7v4.2h-3.7"/>
<polyline class="st0" points="520.3,442.7 513.1,442.7 511,442 510.2,440.6 511,439.2 513.1,438.5 520.3,438.5 "/>
<polyline class="st0" points="531.3,442.7 520.3,442.7 518.3,442 517.5,440.6 518.3,439.2 520.3,438.5 531.3,438.5 "/>
<path class="st0" d="M539.4,417.6h4.2v25.1h-12.4l-2-0.7l-0.8-1.4l0.8-1.4l2-0.7h8.1 M544.5,407.6c-1.2-0.6-2.4-0.8-3.5-0.8
	l-1.7,0.4l-0.6,1.5l1.2,2.3c0.8,0.5,1.8,0.7,3,0.7h2v2.1H534v-2.1h3.5l-0.6-1.1l-0.3-1.9c0-1.5,0.5-2.5,1.4-3.1l3-0.9
	c1.4,0,2.9,0.3,4.4,0.9L544.5,407.6z"/>
<rect x="550.2" y="400" class="st0" width="4.2" height="42.7"/>
<path class="st0" d="M560,418.4c1.1-0.9,2.5-1.8,4.1-2.6c1.7-0.8,3.7-1.2,6-1.2c2.2,0,4,0.4,5.7,1.3c1.6,0.9,3,2.1,4,3.5
	c1.1,1.5,1.9,3.1,2.4,5c0.5,1.9,0.8,3.8,0.8,5.7c0,1.5-0.1,2.9-0.4,4.2c-0.2,1.4-0.5,2.6-0.9,3.6l-1.1,2.8l-0.9,1.8h-20.1v-4.2h17.5
	c0.3-0.8,0.7-1.9,1.1-3.3c0.4-1.3,0.6-3,0.6-4.9c0-1.5-0.2-3-0.6-4.3c-0.4-1.4-1-2.6-1.7-3.6c-0.7-1-1.7-1.8-2.8-2.5
	c-1.1-0.6-2.4-0.9-3.7-0.9c-1.1,0-2.3,0.2-3.5,0.6c-1.2,0.4-2.6,1.2-4.1,2.2"/>
<path class="st1" d="M412.2,303.7c-6.6,13-14.9,21.2-26.2,28.3c-16.5,10.5-33.7,8-39.3,4.7l0.6,1.5l0.5,1.4c2.2,5.9,0.7,12.1-7.3,13
	c-2.1,0.3-4.5,0.4-7.3,1.7c-1.9,0.9-4.1,2.4-6.5,4.9c-1,1-3.1,3.7-4.1,5.8v0v0c-1-2.1-3.1-4.8-4.1-5.8c-2.4-2.5-4.6-4-6.5-4.9
	c-2.8-1.3-5.2-1.4-7.3-1.7c-8.1-0.9-9.5-7.1-7.4-13.1l0.5-1.3l0.6-1.5c-4.1,2.4-14.2,4.2-26,1l-1.2-0.3c-9.5-2.5-17.9-7.2-25-13.9
	c-8.6-8.1-13.3-16.8-15.1-20.1c-15.7-32.4-13.5-80.6-13.5-85.7c-0.5-55.6,11.8-86.8,22.3-101.8c-3.2-4.2-5.1-6.7-5.3-6.9
	c-1.1-1-2.9-2.7-6.6-3.2c-1-7.3-3.8-15.9-3.8-15.9s7.3,5.2,14.1,8.2c-0.5,3.7,0.4,5.9,1.4,7.2c0.1,0.2,1.6,2.2,4.2,5.6
	c4.7-5.8,9.7-10.1,17.5-14.6c1.9-1.1,3.9-2.1,6.1-3.1c-0.1-3,0.9-5.7,2.8-7.7c0.1-1.7,1.5-3.9,3.3-4.5c1.8-0.5,4.5,0.4,5.8,1.6
	c2.9,0.4,5.8,1.9,7.9,4.3c6.5-1.4,13.8-2.4,22.2-2.9c1-4.1,3.6-7.1,6.9-8.7c0.8-1.8,3.3-3.6,5.4-3.7h0c2.1,0.1,4.6,1.9,5.4,3.7
	c3.3,1.6,5.9,4.6,6.9,8.7c8.4,0.5,15.7,1.5,22.2,2.9c2.1-2.3,4.9-3.9,7.9-4.3c1.3-1.3,4-2.1,5.8-1.6h0c1.7,0.6,3.2,2.8,3.3,4.5
	c1.9,2,3,4.8,2.8,7.8c2.2,1,4.2,2,6.1,3.1c7.8,4.5,13.3,9.4,17.8,14.8c2.8-3.7,4.5-6,4.6-6.2c0.9-1.3,1.9-3.6,1.4-7.2
	c6.8-2.9,14.1-8.2,14.1-8.2s-2.7,8.7-3.7,15.9c-3.8,0.5-5.6,2.2-6.6,3.3c-0.2,0.1-2.4,3.1-6,7.8c10.5,15.2,22.6,46.1,22.1,101.3
	C425.8,222.1,427.9,271.2,412.2,303.7 M377.5,140.6c-16.5-16.3-40.1-17.4-46.3-16.9c-1.4,0.1-3.1,1.2-1.3,3.6
	c-1.3,0.6-6.4,0.1-8.2-1.6c-1.9,1.8-6.9,2.2-8.3,1.6c1.8-2.4,0.2-3.5-1.3-3.6c-6.2-0.4-31,2-46,16.6c8.3,10.9,25.5,33.7,25.9,34.2
	l2.2,1l0.4,0l2.6-1.7c1.8-2,2.7-3,4.4-4.8c3.4-3.5,6.6-6.1,7.1-6.6c1.4-1.3,1.9-2.4,1.9-3.5c-0.1-1.2-1.1-1.7-1.7-2.5l-0.3,0.4
	l-1.2-2.4l-0.4,0.9c0,0-1.3-3-3.3-2.8c-2.8,0.4-4.6-0.8-4.8-0.9l-0.2,1.9l-0.1,0c-1.9-1.6-2.5-5.7,1.2-8.4c2.2-1.7,2.7-1.6,4.4-2.4
	l1.4-1.3c1.2-1.4,3.5-2.2,4.8-2.6c1.7-0.4,5.7-1,9.7-0.8c2.2,0.1,4.3,0.6,5.8,1.3c1.2,0.5,4.6,3,6.5,5.5c1.2,1.6,3.4,6.3,4.6,9.2
	c2.5,6.1,2.2,5.5,3.9,9.6c1.9,4.6,3.1,7.3,5,9.9c0.7,0.9,1.3,1.2,2.6,1.3l2.7-0.6l1.1-1.1C358.6,164.8,369.4,151.3,377.5,140.6"/>
<path class="st2" d="M337.1,321.7l-0.3,0.4l-0.1,0l-0.1,0c-0.3-0.2-1.4-0.8-2.6-1.9c1.3,5,2.5,13.1,2.8,19.7
	c3.5-1.5,6.4-0.4,8.2,1.2C344.9,340.9,337.9,323.6,337.1,321.7L337.1,321.7"/>
<path class="st2" d="M370.1,160.8l0.1,0l0.6,0.2c1.1,0.4,2.1,1.1,3,2c3.3,3.5,8.8,11.9,11.9,20.6c1.7,5.4,3.1,12.9,2.7,19.3l0,0
	c0,0-2,36-5.8,70.5c-3.5,31.3-5.4,35.4-5.4,35.4c-2.2-2.9-3.2-6.6-3.7-8.6l-0.3,0.3c0,0-2-3.1-3.3-9.3c-1.4-7-1.6-19.6-1.5-25.6v0
	c0,0,0.1-1.8-1.3-4.8c-0.6-1.4-1.1-2.9-1.5-4.4l0-0.1c-2.1-9.6-6.2-12.3-8.5-15.3c-2.9-3.8-4.6-6-5.7-8.2c-1.7,1.6-3,3.2-3,4.1
	c0.6,5.8,1.1,9.9,0.3,12.9l-1.2-1c0.4,3.8-1.4,8.3-0.3,11.8l-2.3-0.3l0.3,0.6l1.1,1l0.8,0.4c0.2,0.1,0.7,0.3,2.3,0.8
	c1.3-2.9,0.3-5.7-1-7.2c-1.1-1.3,0.2-3.2,2.5-2.3c2.9,1.3,6,3.1,9.3,6.3c4.7,4.5,6.1,8.9,5.1,9.7l-2.3,0.2l-0.1,0.5l-2,1.8l-0.1,0.2
	c-0.5,0.7-1.3,1-2.8,1c-1.2,0-2.6-0.7-2.8-0.9l-0.9-0.7l-1.3,1.1l0.5,0.6c0.3,0.3,1.8,2,2.2,4l0.1,0.9c3.9,4.7,8.6,10.4,11.8,16
	c3.5,6,5.1,11,5.1,11s-1.9,0.6-4.3,0c0.9,2.4,1.3,4.5,1.2,6.1c-1.9,0.1-4.4-0.2-6.9-1.5l0.4,2.4c3.5,2.3,6.1,4.4,7.5,5.4
	c-11.3,5.3-27.6,2.9-27.9,2.8l-2.5-0.4l-0.5-0.1c0,0,4,9.6,4.7,11.1c7.2,3.3,13.8,5.4,24.1,3.7c0,0,1.7-0.2,6.1-1.6
	c4.5-1.5,12.9-6.4,19.4-12.5c8-7.5,12.9-15.5,14.5-18.6c12.5-24.4,14.5-60.5,14.5-75.1c0-4.8,0-7.4,0-7.6
	c-0.1-4.9-0.4-12.2-0.6-15.9c-4.3,3.8-9.8,7.8-26.8,17.2l-3,1.7l-0.1-3.5c0-0.3-0.2-29.9-15.2-67.2
	C374.8,154.5,372.4,157.6,370.1,160.8"/>
<path class="st2" d="M308.2,339.8c0.3-5.7,1.3-13.6,2.4-19.2l-1.2,0.9l-0.9,0.6l-0.1,0l-0.1,0l-0.4-0.5c-1.3,3-7.9,19.2-7.9,19.4
	C301.9,339.5,304.7,338.4,308.2,339.8"/>
<path class="st2" d="M334.7,344.2c0.2-5.1-2.2-20-3.2-26.1l0,0l-1.1-0.4l-1,2.5c-0.7,1.5-1.9,3.2-2.1,3.2c-0.2,0-3.3-2.1-5.3-6.2
	c-2,4.1-5,6.1-5.2,6.1c-0.3,0-1.4-1.6-2.1-3.2l-1.1-2.6l-0.1,0.2c-1,6.3-3.2,21.5-3,26.6c-6.8-4.4-10.8,0-9.4,3.1l0.4,0.7
	c0.8,1.1,1.9,1.7,3.4,1.8c2.2,0.1,5,0.4,8.3,1.9c3,1.4,6.2,3.7,9.5,7.8c3.3-4.1,6.5-6.4,9.5-7.8c3.3-1.5,6.2-1.7,8.3-1.9
	c1.5-0.1,2.5-0.8,3.3-1.8l0.5-0.7C345.5,344.2,341.4,339.7,334.7,344.2"/>
<path class="st2" d="M234.9,301.6c1.7,3.1,6.1,11.3,14.2,18.9c6.1,5.7,13.2,9.8,21.1,12.4l1.8,0.6c9.1,2.9,19,2.3,28.7-2.6l0.1-0.3
	c0.7-1.8,4.6-11.1,4.6-11.1l-0.5,0.1c-1.8,0.3-3.6,0.6-5.3,0.7c-1.1,0.1-16.6,2.5-27.8-2.8c1.7-1.2,5.1-4,9.7-6.7l0.2-1.4
	c-2.6,1.4-5,1.6-6.9,1.5c-0.2-1.6,0.3-3.7,1.2-6.1c-2.5,0.5-4.3-0.1-4.3-0.1s1.6-5,5.1-11c2.7-4.7,6.4-9.3,9.8-13.5l-0.3-1.5
	l0.2-1.6c0.4-2.1,2-3.8,2.2-4l0.7-0.7l-1.3-1.1l-1.1,0.8c-1.3,0.6-2.1,0.8-2.8,0.8c-1.4,0.1-2.2-0.2-2.8-0.9l-0.1-0.2l-2-1.8
	l-0.1-0.5l-2.1-0.3c-1-0.9,0.4-5.2,5.1-9.7c3.3-3.2,6.4-5,9.3-6.3c2.2-1,3.6,0.9,2.5,2.3c-1.3,1.6-2.3,4.3-1,7.2
	c1.4-0.5,1.9-0.7,2.1-0.8l1.9-1.3l0.2-0.5l-2,0.2c1-2.5-0.6-8.6,0.5-12.5l-1.4,0.8c-0.7-3.6-0.6-9.3-0.3-12.1
	c-0.1-0.8-1.2-2.1-2.7-3.6c-1.1,2-2.8,4.1-5.3,7.5c-2.3,3-6.4,5.7-8.5,15.4l0,0l-0.3,1.1l-0.4,1.2l-0.3,0.8l-0.5,1.2
	c-1.4,3-1.3,4.8-1.3,4.8v0c0.2,6.1-0.1,18.6-1.5,25.6c-1.2,6.2-3.3,9.3-3.3,9.3l-0.3-0.3c-0.5,2.1-1.4,5.8-3.7,8.6
	c0,0-1.9-4.1-5.5-35.4c-3.8-34.5-5.8-70.4-5.8-70.4h0c-0.4-6.4,0.9-13.8,2.7-19.3c3-8.7,8.6-17.1,11.9-20.6c0.9-0.9,2-1.7,3.2-2.1
	l1.1-0.2h0c-2.4-3.3-4.9-6.5-7.3-9.7c-15.2,37.4-15.4,67.3-15.4,67.6l-0.2,3.6l-3-1.7c-17-9.4-22.5-13.4-26.8-17.2
	c-0.2,3.7-0.6,15.9-0.6,15.9c0,0.2,0,2.9,0,7.6C220.4,241.1,223,277,234.9,301.6"/>
<path class="st0" d="M344.8,195.1c1.5,2-0.3,5-1.7,7.2C343.7,199.4,344.1,197.1,344.8,195.1 M303.7,179.5c1.4-4.9,4.1-7.7,5-10.5
	C303.8,172.5,302.8,177.8,303.7,179.5 M334.7,219.5c3-3.7,4.5-7.9,3.2-12.2C335.3,211.4,335.3,215.6,334.7,219.5 M343.9,186.8
	c-2.1,0.5-1.3,8.8-1.4,8.8C342.5,195.5,345.7,189.9,343.9,186.8 M302.4,201.3c-1.2,4.9,3.7,9.6,3.8,9.7
	C306.1,211,306.1,205.2,302.4,201.3 M302.3,209.2c-0.2,0.9,0.6,3.6,1.5,5.2c1.7,2.8,3,4.1,4.3,5.5
	C306,216.7,304.4,210.8,302.3,209.2 M342.3,174.2c-0.3,2.5,2.6,8.2,2.7,8.7C345.1,182.5,346.7,177.7,342.3,174.2 M297.8,185.9
	c-0.4-2.4,2.6-4.6,1.6-8.5C296.4,180.7,297,183.9,297.8,185.9 M305.8,192.1c-0.1,2.1-0.1,4-0.5,6.3c-1.4-0.3-2-1.3-3.1-2.1
	c0.8,2.8,4.3,5.9,4.8,6.8C307.5,199.2,307.7,194.7,305.8,192.1 M323.2,145c0.9,0.9,3.8,2.1,5.5,3.7
	C328.5,146.2,326.3,144.8,323.2,145 M332.1,165.6c0-1.9-0.6-5.1-4.8-5.7C327,162,330.7,163.3,332.1,165.6 M314.3,143.6l0.2,1.6
	c-0.2,1-0.6,2-2.1,2.3c-1.6,0.4-3.2-0.6-3.3-2.3l0.3-1.4l-1.1,1.1l-1.5,0.8c0-1,1.1-2.5,2.3-3.1c1.8-0.8,7.9-1.1,12.2,1.2
	c-1.5-0.3-2.9-0.2-4.3-0.3C315.3,143.6,314.3,143.6,314.3,143.6 M313.5,143.7l-1.7,0.2l1.1,0.8l0.6-0.3L313.5,143.7 M319.6,145
	c1.4,1.7,2.8,3.1,5.2,2.9C323,145.9,320.8,145.2,319.6,145 M342.4,205c-1.9,2.6-2.5,8.5-3.1,10.5C340,214.9,343.5,206.5,342.4,205
	 M330.8,153c-0.1-0.6-1.5-2.5-4.4-3.1l1.6,2.6l-2.6,0.5C326.3,153.8,328.3,154,330.8,153 M330.4,171.5c-2,2.1-0.1,6.4,1,10.2
	C332.4,179.8,333.7,173.5,330.4,171.5 M340.8,181.2c-1.1,5.2-3.4,7.2-3.4,7.2s-1.8-1.5-3.3-3.5c-0.1,4.2,3.5,8.3,3.4,8.2
	C337.5,193.1,342,189.6,340.8,181.2 M335.3,163.2c-0.4,2.4,3.4,5.9,3.4,5.9C338.7,169.2,339.2,164.7,335.3,163.2 M327.4,157.6
	c1,1,4.1,1.7,5.8,3.3C333,158.3,330.3,156.6,327.4,157.6 M380.1,187c-0.9,8.8-1.5,10.6-2.4,12.1l-1.4-2.3c-0.3,1.6,0.1,4,1.4,5.3
	C379.4,199.7,380.6,194.9,380.1,187 M299.5,201c-0.7-4.2-0.4-6.9-2.4-10.6C296.4,194.7,299,200.3,299.5,201 M364.6,210.5
	c0,0-1.4-3.3,1.8-13.3c-4.6,10.2-4,13-3,16.5c2-1.5,2.8-2.5,3.2-4.8C365.9,209.9,364.6,210.5,364.6,210.5 M361.6,201.8
	c0,0-1.1-2.3,1.7-11c-5.2,8.3-2.9,14.1-2.9,14.1s2.7-1.4,3.4-4.6L361.6,201.8 M384,207.5c0,0,2.2-3.7,1.1-9.9c-0.3,5.8-1.6,8-1.6,8
	l-1-1C382.5,206.4,384,207.5,384,207.5 M379.4,201.6c-0.1,2,1.6,3.3,1.6,3.3s2.7-4.1,1.6-11.2c-0.5,6.6-1.9,8.9-1.9,8.9L379.4,201.6
	 M378.4,181.1c-1.3,9.8-2.8,12.1-3.8,13.7l-1.4-3c-0.4,1.8,0,4.5,1.3,6C376.5,195.3,378.7,190,378.4,181.1 M339.6,238.7l-0.5-2.1
	c-0.4,1.9-2.9,5.9-2.4,10.6c1.2-4.2,4.4-5,5.2-8.9l2,0.7c-0.4-1.5-1.5-3.1-1.9-6.3C341.6,233.8,341.2,236.9,339.6,238.7 M376,177.4
	c-1.3,8.1-3.4,11.5-4.5,13.2c-0.9-2.7-0.7-5.3-0.7-5.3c-1.2,3.8-0.9,7,0.4,8.6C373.4,191.5,376.4,184.2,376,177.4 M368.2,185
	c-0.6-2.8-0.3-6.9-0.3-6.9c-1.6,3.7-1.4,8.7-0.3,10.5c2.4-2.1,5.6-8.5,5.8-15.3C371.4,181.3,369.4,183.5,368.2,185 M327.7,200.6
	c0,0,3.8-3.5,4.1-10.7c-2.1,3.6-4.4,5.6-4.4,5.5c0,0-2-1.4-3.7-3.4C323.7,196.7,327.7,200.7,327.7,200.6 M271.5,190.6
	c-1.1-1.6-3.3-5-4.5-13.2c-0.4,6.8,2.7,14.1,4.8,16.4c1.3-1.6,1.7-4.8,0.4-8.6C272.1,185.3,272.4,187.9,271.5,190.6 M278.3,210.5
	c0,0-1.3-0.6-2-1.7c0.4,2.3,1.2,3.3,3.2,4.8c1-3.5,1.6-6.2-3-16.5C279.6,207.1,278.3,210.5,278.3,210.5 M274.8,185
	c-1.3-1.5-3.2-3.7-5.3-11.7c0.2,6.8,3.5,13.1,5.8,15.3c1.1-1.7,1.3-6.8-0.3-10.5C275.1,178.1,275.4,182.2,274.8,185 M304.5,145.8
	l0.4,1l0.9-0.9L304.5,145.8 M265.3,199.1c-0.9-1.5-1.5-3.3-2.4-12.1c-0.6,7.9,0.6,12.8,2.3,15.1c1.3-1.3,1.6-3.7,1.4-5.3
	L265.3,199.1 M259.4,205.6c0,0-1.3-2.2-1.6-8c-1.2,6.2,1.1,9.9,1.1,9.9s1.5-1.1,1.5-2.9L259.4,205.6 M262.3,202.6
	c0,0-1.4-2.3-1.9-8.9c-1.1,7.1,1.6,11.2,1.6,11.2s1.7-1.3,1.5-3.3L262.3,202.6 M268.3,194.8c-1-1.7-2.5-3.9-3.8-13.7
	c-0.3,9,1.9,14.3,3.9,16.7c1.4-1.5,1.7-4.2,1.3-6L268.3,194.8 M305.6,246.9c0.6-4.7-1.9-8.7-2.4-10.6l-0.5,2.1
	c-1.7-1.8-2.1-4.9-2.4-6c-0.4,3.2-1.5,4.8-1.9,6.3l2-0.7C301.3,241.9,304.5,242.7,305.6,246.9 M281.4,201.8l-2.2-1.5
	c0.7,3.1,3.4,4.6,3.4,4.6s2.2-5.8-2.9-14.1C282.5,199.5,281.4,201.8,281.4,201.8 M327.5,225.9c0.9-2,3.1-5.8,2.6-10.1
	C328.2,217.4,327.3,223.3,327.5,225.9 M327.3,239.2c0.9-2.2,2.8-4.3,2.8-11.2C327.9,230,327.1,236.6,327.3,239.2 M328.3,206.6
	c-0.8,2.9-2.1,4.8-4.3,7c-0.9-0.8-1.8-1.8-3.1-4.3c-0.5,4.8,2.3,7.7,3.9,8.7C325.8,217.2,329,212.6,328.3,206.6 M323.2,241.9
	c1.1-2.8,1-6.3-0.2-7.8C322.1,237.1,322,239.7,323.2,241.9 M320.1,233.5c1.1-3.2,0.8-7.1-0.6-8.8C318.6,228,318.6,231,320.1,233.5
	 M412.2,303.7c-6.6,13-14.9,21.2-26.2,28.4c-16.5,10.5-33.7,7.9-39.3,4.7l0.6,1.4l0.5,1.3c2.2,6,0.7,12.1-7.4,13.1
	c-2.1,0.2-4.5,0.3-7.3,1.6c-1.9,0.9-4.1,2.4-6.5,4.9c-1,1.1-3.1,3.7-4.1,5.8c-1-2.1-3.1-4.8-4.1-5.8c-2.4-2.5-4.6-3.9-6.5-4.9
	c-2.8-1.3-5.1-1.4-7.3-1.6c-8-0.9-9.5-7.1-7.3-13.1l0.5-1.3l0.6-1.5c-4.1,2.4-14.2,4.2-26,1l-1.2-0.3c-9.5-2.5-17.9-7.2-25-13.9
	c-8.6-8.1-13.3-16.8-15.1-20.1c-15.7-32.4-13.5-80.6-13.6-85.7c-0.5-55.6,11.8-86.8,22.4-101.8c-3.2-4.2-5.1-6.7-5.3-6.9
	c-1.1-1.1-2.9-2.7-6.6-3.2c-1-7.3-3.8-15.9-3.8-15.9s7.3,5.2,14.1,8.2c-0.5,3.7,0.4,5.9,1.4,7.2c0.1,0.2,1.7,2.2,4.2,5.6
	c4.7-5.8,9.7-10.1,17.5-14.6c1.9-1.1,3.9-2.1,6.1-3.1c-0.1-3,0.9-5.8,2.9-7.8c0.1-1.7,1.5-3.8,3.2-4.5h0c1.8-0.5,4.5,0.3,5.8,1.6
	c2.9,0.4,5.8,2,7.8,4.3c6.5-1.4,13.8-2.4,22.2-2.9c1-4.1,3.6-7,6.9-8.6c0.8-1.8,3.3-3.6,5.4-3.7h0c2.1,0.1,4.6,1.9,5.4,3.7
	c3.2,1.6,5.9,4.6,6.9,8.6c8.4,0.5,15.7,1.5,22.2,2.9c2.1-2.3,4.9-3.9,7.9-4.3c1.3-1.3,4-2.1,5.8-1.6h0c1.7,0.7,3.2,2.8,3.3,4.5
	c1.9,2,3,4.8,2.8,7.8c2.2,1,4.2,2,6.1,3.1c7.8,4.5,13.3,9.4,17.8,14.8c2.8-3.7,4.5-6,4.6-6.1c0.9-1.3,1.9-3.6,1.4-7.2
	c6.8-2.9,14-8.2,14-8.2s-2.7,8.6-3.7,15.9c-3.8,0.5-5.6,2.2-6.6,3.2c-0.1,0.2-2.4,3.1-5.9,7.8c10.5,15.2,22.6,46.1,22.1,101.3
	C425.8,222.1,427.9,271.2,412.2,303.7 M407.2,129.1c-6.3,1.4-10.8,1.4-13.2,1.3c-1.7,3.6-3.1,7-2.9,13.2c-2.5-0.7-4.2-1.8-5.6-3.1
	c-2,2.7-4.1,5.4-6.2,8.2c13.7,32.8,15.9,60.2,16.2,68.3c22.4-12.7,25.6-16.4,26.6-18C420.5,170,416.4,147.9,407.2,129.1
	 M376.8,214.3c-0.4,3.2-0.4,5.9,0.4,8.9c1.4-2,2.4-3.9,3.5-7.4c0,2.8,0.8,5.9,1.3,7.2c1.9-3,3-14.7,3-14.7l1,0.7
	c1-4.2,0.5-12.9-0.4-16.9c-1.5-7.2-4.1-15.9-12.4-26.2c-4.2-5.3-7.8-2.9-11.4,1.2c-5.8,6.7-7,9.7-13.9,11c-0.7,0.1-0.2,0.5,1.2,0.5
	c8.3-0.2,10.9-6,13.4-9c1.6-2,3.8-3.7,5.6-2.6c0.7,0.4,2.9,3.2,0.6,10.2c0-1.6-0.5-2.9-0.9-3.3c-1.1,4.6-2.5,8.3-4.3,11.4l-0.5-2.5
	c-0.8,5.6-5.5,11.5-6.2,19.5c-0.5-0.9-0.9-1.4-1-3.5c-3.6,7-7.2,19.5-5,25.8c-0.1-6.4,3.6-15.6,5.5-18.5c-2.5,8.2-5.3,18.4-2.9,24.5
	c0.2-5.2,3-13.8,5-17.3c-3.4,13.5-4.8,20.4-1,25.6c-0.7-5.1,1.3-12.7,3.9-19c-1.7,10.5-4.3,19.7,0.4,24.4
	c-0.7-6.9,1.8-16.1,3.1-19.3c-1.5,10-2.8,19.6,0.1,24.6c0-1.6,0.2-3.4,0.5-5.4c1.1-8.4,2.8-13.5,2.8-13.5s-1,7.1-1.5,15.8
	c-0.5,8.4,0.9,12.4,1.8,14c0.8-11.5,2.1-21.4,3.5-26c0,0-1.2,10.7-2,27.2c-1.2,25.1,1.9,32.9,2.8,35.2c0,0-0.2-0.4-0.3-3.5
	c-0.1-2.5-0.1-2.4,0.2-5.3c0.1-0.8-2-5.2-1.7-11c0.8-16.5,2.8-32.6,4.6-40.1c-0.2,3-3.1,38.3-2.9,42.8c0.2,4.7,1.5,6.8,1.5,7.5
	c-0.2,9.2,0.6,12.9,2.1,16.4c0,0,0.9-3.3,1.6-7.4l-0.9,0.8c-1.1-3-1.6-8.2-0.9-13.6c0.1-1-1.2-2.2-1.1-6.5c0.3-10.9,3.2-32,4.5-38.2
	c0.1,0.8-2.8,35.6-2.9,37.8c-0.1,4.6,1.1,5.9,1,6.8c-0.3,3.3-0.2,9.3,0.3,10.9c0.4-1.4,0.7-3.8,0.7-3.8s2.7-21.2,4.7-45.3
	c1-11.9,2.2-26.7,2.6-33.3l-0.3-0.2c0,0-1.1,12.6-4.3,17.1c-0.9-0.8-1.9-5.6-1.8-7.1c-0.7,2.5-3.6,5.9-3.6,5.9s-1-2.5-0.9-6.6
	c-1,1.5-1.8,2.6-3.2,3.5c-0.6-1.4-1.3-3.1-1.2-7.2c-0.5,0.8-1.4,1.8-2.9,2.8c-0.4-1-2.5-4.5,1.3-17.7c-1.5,12.2-0.6,13.6-0.3,14.6
	l2-1.4c0.2-2.2,0.5-5,1.2-8.6c-0.6,9.7,0.1,12.7,0.9,14.6C373.8,220.3,375.1,218.5,376.8,214.3 M345.9,233.4l0.1-0.3l0.1,0l0.1,0
	l0.9,0.4l0.9,0.5c-0.5-1.1-0.6-2.8-0.7-4.7c-0.1-1.9-0.2-4.1-0.8-6.1l0,0.1l-0.1-0.2l-1.7,2.8c-1,1.3-2,2.7-2.3,4.5l-0.1,0.3
	l-0.3-0.2l-1.1-1.2l-0.3-0.4l-0.1-0.1c-0.7,2.9-5.6,9-6.8,10.3c-0.1,0.2-2,3-2.7,9.9c-0.7,6.5,0,10.5,0,10.5l1.7-1.9
	c0,0,0.1,1.8-0.1,3.9c-0.2,1.6-0.7,2.9-0.7,2.9s3.4,0.6,6.1-2.6l0.5,1.3c0.4,1.2,0.8,2.7-0.2,3.5c-0.2,0.1-1.8,1.5-1.6,3l0.9,1.4
	l0.1,0v0.1l1.1,1.4l0-1.3l1.5-1.2l0.7,0.1l0.1,0l0,0.1c0,0,0.4,3.9,0.7,5.5c0.3,1.4,0.7,3.3,0.9,5.3l0.2,1.4
	c0.1,1.3,0.9,1.5,1.6,1.6l1.7,0l0.1,0l-0.1,0l-0.9,0.8c0.1,0.6,0.5,1.3,0.1,2.6l0.1,0.1c1.6-0.8,1.6-2.3,1.4-3.5l0-0.1l0.1-0.1
	c1.2-0.7,0.9-3-0.8-6.6c-0.8-1.7-1.1-4.5-0.6-4.8l0.1,0c0.3,0,0.6,0,1.4,1.1l1.8,2.4l1.1,2.3l-0.2,0.5l-0.5,0.2l-1.1-0.1l2.2,1.5
	c1.1-1.2,0.1,0.8,2,1c1.2,0.1,2.1-0.8,2.1-2.2l-0.2-1.3c-0.2-1.4-1.3-2.8-1.8-3.3l-0.4-0.4c-3.2-3.5-2.9-4.3-2.7-4.6l1.4-0.7
	c1.2,0,2.6,0.2,2.6,0.2c1.3,0.2,3.4,0.6,3.3,1.3l-0.3,0.4l-1.3,0.3l1.2,0.8l3.4-0.2l0.2-0.4l1.7-0.9l-1.6-2.1
	c-0.7-0.4-2.9-1.2-4.7-1.8l-2.3-0.6l-3.8-1l-2.8-1l-0.8-0.4l-1.6-1.4c-0.4-0.6-0.8-2.1-1.3-3.8c0.5,0.2,1.6,1,3,1.2l-0.1-3.4
	c0.6-6.3,0.7-9.9,0.7-9.9l1.3,1.3c0.2-1.1-0.2-3.7-0.4-6.3C347,239,346.5,236,345.9,233.4 M350.4,263.2l2.9,0.8l1.4,0.4
	c0.5-1.4,0.8-2.9,0.7-4.3c-0.1-1.6,3.7,1.8,6.1,4.3l0.6-0.2c-2.5-3.4-7.4-6.6-8.8-7.5c-2.4-1.5-3.6-1.1-2.8,0.2
	C351.6,258.4,351.4,260.7,350.4,263.2 M353.6,287.6c2.7,3.2,6.9,9.2,8.5,10.8c3.5,3.5,5,3.9,7.6,4c-0.8-2.4-1.8-4.6-5.9-10.8
	c-2.1-3.2-5.6-7.8-8.4-11.4l-0.2,0.4l-1,1.1l-2.1,0.5l-1.9-0.9l-1.3-0.3c0.1,1.3-0.1,2.3-0.7,3c0,0.8-0.2,2.5-1.4,3.7l0.2,0.3
	c0.9,1.6,0.5,2.5,0.1,3l-5.8,6.3c-1.2,1.1-2.4-0.2-2.4-0.2l-0.7-0.6l-2.1,2.1l0.3,0.2v0c1.4,1.3,3.2,2.3,5,3.1
	c1.8,0.8,5.3,2,8.9,3.5l0,0c-0.8-1.9-1.9-4.8-2.9-8.4c1,1.4,3.9,6.4,5.7,9.5l0,0l3.8,1.9l3.6,1.9c-0.2-1.6-0.5-2.7-0.5-2.7
	s-2.2-2.2-3.8-4.3c-3.1-4.2-5.1-8.6-6-11.6c3.5,5,4.4,6.4,5.8,8.2c4.4,5.6,9,8.1,10.8,8.1c-0.6-3.2-1.8-3.9-1.8-3.9
	s-2.2-1.8-4.6-4.9C358.3,296.9,355.9,292.9,353.6,287.6 M342.2,318c6.2,0.8,19.6,0.6,24.4-1.3c-1.8-1.5-9.4-6.4-21.1-11
	c-2.4-1.1-5.5-2.2-7.6-3.7c-1.3-0.9-2.2-1.6-3.5-2.8c-3.8-3.5-14-14.1-15.7-16l-6.7,6.2c0,0,17.8,17.4,22.3,19.8
	c5.7,3.1,22.1,6.8,22.1,6.8s-12.6-0.9-22.1-4.8c-5.7-2.3-23.9-20.3-23.9-20.3l-4.4,4.1c2.3,2.5,7.1,8,15.1,14.4
	C326.4,313.9,333.1,316.9,342.2,318 M326.6,316c-1.1-0.6-2.2-1.2-3.3-1.9h0l1,2c0.7,1.5,1.6,2.7,2.4,3.6l0.3-0.5l1-2.5L326.6,316
	 M294.3,291.7c-1,2.9-2.9,7.3-6.1,11.6c-1.5,2.1-3.7,4.3-3.7,4.3s-0.2,0.7-0.4,1.8l1.3-0.7c2-1.1,4.3-2.1,6.6-3.1
	c1.9-3.2,4.6-7.7,5.5-9c-0.9,3.2-2,5.9-2.9,7.9c3-1.2,5.6-2.1,6.9-2.7c2.1-0.9,3.1-1.8,3.9-2.4l0.8-0.8l-2.2-2.2l-0.7,0.6
	c0,0-1.3,1.2-2.4,0.2l-5.8-6.3c-0.4-0.5-0.9-1.4,0.1-3l0.1-0.1c-1.4-1.3-1.6-3-1.6-3.8c-0.6-0.7-0.9-1.7-0.7-3l-1.4,0.3l-1.8,0.9
	h-0.3l-2-0.6c-2.5,3.3-5.3,7-7.1,9.7c-4,6.2-5,8.4-5.8,10.8c2.7-0.2,4.2-0.6,7.6-4c1.6-1.6,5.8-7.6,8.5-10.8
	c-2.2,5.3-4.7,9.3-6.7,11.9c-2.4,3.1-4.6,4.9-4.6,4.9s-1.2,0.7-1.8,3.8c1.8,0,6.5-2.5,10.9-8.1C290,298.1,290.9,296.7,294.3,291.7
	 M290,273.7l-0.4,0.4c-0.5,0.5-1.6,1.9-1.8,3.3l-0.2,1.3c0.1,1.5,0.9,2.3,2.1,2.2c1.9-0.2,0.9-2.2,2-1l2.2-1.5l-1.1,0.1l-0.5-0.2
	l-0.2-0.5l1.1-2.3l1.8-2.4c0.8-1.1,1.1-1.2,1.4-1.1h0l0.1,0c0.4,0.3,0.2,3.1-0.6,4.8c-1.7,3.6-2,5.9-0.8,6.6l0.1,0.1l0,0.1
	c-0.2,1.3-0.2,2.7,1.4,3.5l0.1-0.1c-0.4-1.3,0-2,0.1-2.6l-0.9-0.8l-0.1,0l0,0l1.7,0c0.7-0.1,1.5-0.2,1.6-1.6l0.1-1.4
	c0.2-2,0.6-3.9,0.9-5.3c0.4-1.6,0.7-5.5,0.7-5.5l0-0.1l0.1,0l0.7-0.1l1.5,1.2l0.1,1.3l1.1-1.4v-0.1l0.1,0l0.9-1.4
	c0.2-1.4-1.4-2.9-1.6-3c-1-0.8-0.7-2.2-0.2-3.5l0.6-1.5l1.9,1.6c2.3,1.6,4.6,1.2,4.6,1.2s-0.5-1.3-0.7-2.9c-0.2-2.1-0.1-3.9-0.1-3.9
	l1.7,1.9c0,0,1-3.4,0.4-9.9c-0.8-7.5-2.4-10.4-2.7-11.5c-0.5-1.7-1.5-3.4-1.5-3.4s-0.1,0.9-1.4,1.9c-1.4-1.8-4-5.4-4.7-7.8l-1.4,1.8
	l-0.3,0.2l0-0.3c-0.3-1.8-1.3-3.2-2.3-4.5l-1.7-2.8c-0.6,1.9-0.7,4.1-0.8,6.1c-0.1,1.9-0.2,3.6-0.7,4.7l0.9-0.5l0.9-0.4l0.1,0
	l0.1,0.1l0.1,0.3c-0.6,2.5-1.1,5.5-1.2,7.3c-0.2,2.6,0,4.9,0.2,6l1.9-1.1c0,0-1.2,3.8-0.6,10l-0.1,3.4c1.2-0.2,2.2-0.7,2.7-1.1
	c-0.5,1.7-0.9,3.2-1.3,3.8l-1.6,1.4l-0.8,0.4l-2.8,1l-3.8,1l-2.1,0.5c-1.4,0.3-4.1,1.5-4.8,1.8l-1.6,2.1l1.7,0.9l0.2,0.4l3.4,0.2
	l1.2-0.8l-1.3-0.3l-0.3-0.4c-0.1-0.7,2-1,3.3-1.3c0.1,0,1.4-0.2,2.6-0.2l1.4,0.7C292.9,269.4,293.2,270.2,290,273.7 M291.6,256.8
	c0.8-1.3-0.4-1.6-2.8-0.2c-1.4,0.9-6.3,4.1-8.8,7.5l0.6,0.2c2.5-2.5,6.2-5.9,6.1-4.3c-0.1,1.4,0.2,2.9,0.7,4.3l1.1-0.3l3.2-0.8
	C290.8,260.7,290.6,258.3,291.6,256.8 M286.6,206c1.9,2.9,5.6,12.1,5.5,18.5c2.3-6.3-1.4-18.8-5-25.8c0,2.1-0.5,2.6-0.9,3.5
	c-0.7-8-5.4-13.8-6.2-19.5l-0.5,2.5c-1.7-3.1-3.2-6.8-4.3-11.4c-0.3,0.4-0.9,1.7-0.9,3.3c-2.4-6.9-0.1-9.7,0.6-10.2
	c1.8-1.1,3.9,0.7,5.6,2.6c2.5,3,5.1,8.8,13.4,9c1.4,0,1.9-0.3,1.2-0.5c-6.9-1.3-8.2-4.3-13.9-11c-3.6-4.2-7.2-6.5-11.4-1.2
	c-8.3,10.3-10.9,19-12.4,26.2c-0.8,4.1-1.4,12.7-0.4,16.9l1-0.7c0,0,1.1,11.8,3,14.7c0.5-1.3,1.3-4.4,1.3-7.2c1,3.5,2,5.4,3.4,7.3
	c0.8-2.9,0.8-5.7,0.4-8.9c1.7,4.2,2.9,6,3.8,6.7c0.7-1.9,1.4-4.9,0.9-14.6c0.6,3.6,1,6.4,1.1,8.6l2,1.4c0.3-1,1.2-2.4-0.3-14.6
	c3.8,13.2,1.7,16.8,1.3,17.7c-1.5-0.9-2.4-2-2.9-2.8c0.1,4.1-0.6,5.8-1.2,7.2c-1.5-0.8-2.3-2-3.3-3.5c0.1,4.1-0.9,6.6-0.9,6.6
	s-2.9-3.4-3.6-5.9c0.1,1.6-1,6.3-1.8,7.1c-3.2-4.4-4.3-17.1-4.3-17.1l-0.3,0.2c0.4,6.6,1.6,21.4,2.6,33.3c2,24.1,4.7,45.3,4.7,45.3
	s0.2,2.5,0.7,3.8c0.4-1.5,0.6-7.6,0.3-10.9c-0.1-0.8,1.1-2.2,1-6.8c0-2.3-3-37-2.9-37.8c1.3,6.2,4.3,27.3,4.5,38.2
	c0.1,4.3-1.3,5.6-1.1,6.5c0.7,5.4,0.2,10.6-0.9,13.6l-0.9-0.8c0.7,4.1,1.6,7.4,1.6,7.4c1.5-3.5,2.4-7.2,2.1-16.4
	c0-0.7,1.3-2.8,1.5-7.5c0.2-4.5-2.7-39.8-2.9-42.8c1.8,7.5,3.8,23.7,4.6,40.1c0.3,5.9-1.8,10.2-1.7,11c0.3,2.9,0.3,2.7,0.2,5.3
	c-0.1,3-0.3,3.5-0.3,3.5c1-2.3,4.1-10.2,2.8-35.2c-0.8-16.5-2-27.2-2-27.2c1.4,4.6,2.7,14.5,3.5,26c0.9-1.7,2.4-5.6,1.8-14
	c-0.5-8.6-1.5-15.8-1.5-15.8s1.7,5.2,2.8,13.5c0.3,2,0.4,3.8,0.5,5.4c2.8-5,1.5-14.6,0-24.6c1.3,3.2,3.8,12.4,3.1,19.3
	c4.6-4.6,2.1-13.8,0.4-24.4c2.6,6.3,4.6,13.9,3.9,19c3.7-5.2,2.4-12.1-1-25.6c2,3.6,4.8,12.1,5,17.3
	C291.9,224.3,289,214.2,286.6,206 M377.5,140.6c-16.5-16.3-40.1-17.4-46.2-16.9c-1.4,0.1-3.1,1.3-1.3,3.6c-1.3,0.6-6.4,0.2-8.2-1.6
	c-1.9,1.8-6.9,2.2-8.3,1.6c1.8-2.4,0.2-3.5-1.3-3.6c-6.2-0.4-31,2-46,16.6c8.3,10.9,25.5,33.7,25.9,34.2l2.2,1h0.4l2.6-1.7
	c1.8-1.9,2.7-3,4.5-4.8c3.4-3.5,6.6-6.1,7.1-6.6c1.4-1.3,1.9-2.4,1.9-3.5c-0.1-1.2-1.1-1.7-1.7-2.5l-0.3,0.5l-1.2-2.4l-0.3,0.9
	c0,0-1.2-3.1-3.3-2.8c-2.8,0.4-4.5-0.8-4.8-0.9c-0.2,0-0.3,0.9-0.2,2l-0.1-0.1c-1.9-1.6-2.5-5.8,1.2-8.4c2.2-1.7,2.6-1.6,4.4-2.4
	l1.5-1.3c1.2-1.4,3.5-2.2,4.8-2.6c1.7-0.4,5.7-1,9.7-0.8c2.2,0.1,4.4,0.6,5.9,1.3c1.2,0.5,4.6,3,6.5,5.5c1.2,1.6,3.4,6.3,4.6,9.2
	c2.5,6.1,2.2,5.5,3.9,9.6c2,4.7,3.1,7.2,5,9.9c0.6,0.9,1.3,1.3,2.6,1.3l2.7-0.6l1.1-1.1C358.6,164.8,369.4,151.3,377.5,140.6
	 M332,238.5c0,0,2.2-2.1,3-9l1.4,2c1.4-1.7,4.2-10.9,4.5-14l1.1,0.7c0.7-1.4,2.3-6.6,3-13.9l1.2,0.4c0.5-3.3,1-8.7,1.1-12.4
	c0.1-3.2,0-9.8-1.3-13.6c-1.4-3.8-2-5.8-4.2-9.3l-1.2,0.9c-0.6-1.8-2.3-6.3-3.1-7.9c-2.1-4.1-3.1-6.7-5.3-8.1c1,0,1.4,0.3,2.6,0.2
	c-1.4-1.3-1.9-2.2-3.5-3.5c0.5-0.4,1.4-0.3,2.9,0c-2.1-2-2.9-4.9-8.4-7c1-0.2,1.7,0.1,3,0.1c-0.7-1.1-2.4-2.9-5.1-3.7
	c-5.6-1.1-13.4-1.3-17.1,3l-2.1,0.8l-1.1,0.5c-0.6,0.4-0.7,1.1,0.5,2.8c-1.6-0.2-2-1.8-2.3-1.6l-1.7,1.7l-0.9,3.2
	c0.2,0.2,1.5,0.8,1.8-0.8l3.4-0.8c1.2,0,2.4,0.3,3.9,0.2l-2.9,0.9l-0.1,1l1.7-0.4l0.3,1.4c4.6-1,4.9,3.8,9.7,2.9
	c-2.3-1.8-4.2-4.8-6-5.7c4.8,0.8,7.4,5.1,12.5,5.3l-0.6-1.4c1.8,0,3,1.4,3.6,1.3c-0.7,0.7-2.2,1.3-4.1,1.5l2.9,0.9
	c-1.1,1-2.3,1.4-4.6,1c-0.8,0.7-1.8,2.3-5.2,4.4l0.2-1.6c-2.2,1.3-3.7,3.6-5.4,4.3l1.3-3c-5.8,5.3-11.4,10.3-13.5,14.1
	c-2.3,4.3-3.1,8.7-2.8,15.9c0.2,3.9,1.9,14.9,2.2,17.1l1.2-0.5c1.4,8.1,5.6,19.4,7.8,23.1l1.3-1.7c0.3,2.2,1.5,4.6,3.3,6.2
	c0-1.4,0.6-2.3,0.7-2.8c0.5,1.6,0.2,6.4,3,9.1c-0.1-1.3,0.3-2.5,0.7-4.3c0.5,1.5,0.6,3.5,1.3,5.1c0.9,1.8,2,3.7,3,4.2
	c-0.1-3.8,0.5-3.6,0.6-5.2c0.1,0.3,1.5,1.7,2.2,6.5c2.8-2.2,3.9-9.3,3.9-9.3s0.8,0.7,1.4,2.7c2.5-2.6,3.2-6,3.9-8.5
	C332.2,235.9,332.2,237.6,332,238.5 M334.9,276.2c3.4,0,4.3,0,5.6-0.2l-0.2-1.1l-0.1-0.8l-0.1,0c-1.2,0.3-3.4,1-6.4,0.4
	c-1.4-0.3-1.5-0.3-2.7-0.7c-1-0.3-2.6,1.4-3.9,2.7c-1.1,1.2-2.5,2.8-3.2,3.5l0,0.4c1.1,1.1,15.2,13.9,16.1,14.7l0.7-0.1l2.5-2.5
	L329,279.3l-0.1-0.6l0.8-0.9l0.6,0.1l4.6,4.3l6,5.3l3.8,3.3l0.6-0.6c0.6-0.6,0.4-1-1.5-2.9l-9.7-9.7
	C333.1,276.6,333.8,276.2,334.9,276.2 M313.2,279.2l-14.1,13.3l2.5,2.5l0.7,0c0.9-0.8,14.9-13.6,16.1-14.7l0-0.3
	c-0.7-0.7-2.1-2.3-3.2-3.5c-1.3-1.3-2.9-3-3.9-2.7c-1.1,0.3-1.2,0.3-2.6,0.7c-3,0.5-5.2-0.1-6.4-0.4l-0.3-0.1l-0.1,1l-0.2,0.9
	c1.5,0.3,2.2,0.2,5.8,0.3c1.1,0,1.8,0.4,0.8,1.4l-9.7,9.7c-1.9,1.8-2,2.3-1.5,2.9l0.6,0.6l3.7-3.3l6-5.3l4.5-4.3l0.6-0.1l0.8,0.9
	L313.2,279.2 M314.6,246.4l-0.5-1.9l-1.6-1.8L312,242l0.3,2.3l1.2,1.6L314.6,246.4 M314.4,273.1l1.2,1.2c0.2-1.4,0.9-6.2,0.6-6.7
	C314.7,270.7,314.5,272.8,314.4,273.1 M308.9,272.7l2.6-1l0.5-0.1c0.4-1.4,1.1-3.6,1.5-4.7L308.9,272.7 M319.2,277.8
	c-0.1-1.9-0.1-4-0.3-4.8c-0.6,0.8-1,2.1-1.2,3.3L319.2,277.8 M320.1,265.3c0,0-0.3-2.4-2.2-3.2C318,263.8,320.1,265.3,320.1,265.3
	 M321.5,261.3L321.5,261.3L321.5,261.3l1.3-1.4l5.3-3.9l1.1-2.5c0,0-0.7,1.1-2.3,2c-1.3,0.7-4.4,2.7-4.9,3.6l-0.4,1.2l-0.3-0.9
	c-0.9-2-3.8-2.8-5.5-4.8c-1.1-1.3-1.1-1.8-1.1-1.8c0,1.3,0.2,2.3,0.7,3.1c0.5,0.7,1.9,1.9,3.8,3.1
	C321.1,260.4,321.5,261.3,321.5,261.3 M319.7,254.2c0-3.1-3.4-3.5-4.2-6.6C315.1,252,318.1,252.1,319.7,254.2 M321.3,266.6l1.4-0.8
	l2.1-1.9l0.3-2.2c0,0-0.2,0.8-1.3,1.9l-1.6,1.6L321.3,266.6 M324.3,268.5c0.3,1.9,0.6,6.2,0.6,7.6v0l1.6-1.6
	C326.3,273.8,325.7,270.4,324.3,268.5 M321.5,279.8l1.7-1.9l0.1-0.1c-0.3-2.4-0.9-5.4-1.7-6.5C321.4,272.4,321.4,276.6,321.5,279.8
	 M321.5,281.1l0.1,2.3l1.1-1.2L321.5,281.1 M322.2,284.8c1.9,2.1,4.6,4.8,6.3,6.5c1.1-1.1,1.8-1.8,1.8-1.8l-6.7-6.2L322.2,284.8
	 M330.2,292.9c1.4,1.4,3.1,3,4.4,4.3l1.9-2.1l-4.4-4.1C332,291.1,331.3,291.7,330.2,292.9 M331.4,272.1c-0.7-0.9-2.5-3.4-4.2-4.8
	c1.1,2.6,1.6,4.2,1.8,4.9l0.3-0.1l0.8-0.2l0.9,0.2L331.4,272.1 M329.8,246.7c-0.9,1.4-1.6,2.2-2.7,3.2l0.4-2.2l-2.6,3.4
	c-2,2-2.4,3.9-2.4,3.9s0.5-0.7,2.9-2.1C328.1,251.4,329,249.2,329.8,246.7 M298.5,219.6c0,2.4,1.7,5.8,4,7.2
	C301.1,223,300,221.8,298.5,219.6 M378.7,139l1.7-2.2c-7.5-6.7-18.7-13.4-31-16.1c-8.3-1.8-14.9-2-19.1-1.9c-3.4,0-5.6,1.4-5.6,3.5
	c-2.1-0.4-2.7-3.1-3-3.6c-0.2,1.1-1.3,3.3-2.9,3.6c0-2.1-2.2-3.5-5.6-3.5c-4.2-0.1-10.8,0.1-19.1,1.9c-12.5,2.7-23.3,8.9-30.8,15.6
	l1.7,2.2c6.8-6.4,15.8-11.4,25.4-14.2c8-2.3,17.8-3.2,22.3-3c4,0.2,4.6,2.5,4.1,3.7c1.8,0.2,4.5-1.4,5-2.4c0.4,0.8,2.9,2.6,5,2.4
	c-0.5-1.2,0.1-3.5,4.1-3.7c4.5-0.2,14.3,0.6,22.2,3C362.5,127.1,371.9,132.8,378.7,139 M383.2,130.9c0.8,2.9,1.7,6.2,4.2,8.2
	l1.1,0.7l0,0.1c0-5.6,1.9-8.7,3.3-12l0,0c2.1,0.3,4.8,1.1,10.4,0c-5.3-3.6-4.2-7.6-8.1-12l-1.5-1.4c-1.4-1-2.5-1.3-3.2-1.4l-1.8,0.8
	c-0.5,0.6-6,6.5-9.7,10.6C381.4,124.4,382.2,127.4,383.2,130.9 M386.8,111.2c-3.7-3.7-9.6-7.7-16.6-10.8
	c-18.4-8.1-41.8-8.1-48.5-8.1v0l0,0c-6.7,0-30.1,0-48.5,8.1c-7.1,3.1-12.9,7.1-16.6,10.8c0,0,8.3,9.3,10.5,11.9
	c1.1,1.3,1.5,2.5,0.8,4.4c12.8-8.6,27.3-12.9,53.3-13l1.2,0c25.5,0.2,40.5,4.6,53.1,13c-0.6-2-0.3-3.1,0.8-4.4
	C378.5,120.6,386.8,111.2,386.8,111.2 M255.6,114L255.6,114c-0.5-0.6-1.8-1.7-5,0.6c-5.7,4.9-3.9,9.4-9.7,13.4
	c2.1,0.4,3.8,0.5,5.2,0.5l2.5-0.1l2.8-0.4h0c1.5,3.3,3.3,6.3,3.3,11.9c6.9-3.6,4.1-15.4,10.5-15.2
	C261.4,120.5,256.2,114.6,255.6,114 M260.1,137.6c5,6.7,8.8,11.8,9.6,12.8c1.8,2.4,7.8,9.6,7.8,8.7c0-0.6-3.7-5.7-6.1-8.9
	c-3.4-4.6-6.9-9.3-10.4-14L260.1,137.6 M285.8,182.1c0,4.7,0.9,8.2,2.4,14C288.3,190,287.2,183.8,285.8,182.1 M282.6,176.7
	c-0.3,2.2-0.3,4.9,0.2,7c0.3,1.4,1,2.8,1.5,4C284.5,183.5,283.5,178.9,282.6,176.7 M294.4,218.2c0.8-2.6,1.7-19.4-4.5-26.6
	C291.4,198.2,293.5,205.7,294.4,218.2 M275.6,316.8c4.8,1.9,18.2,2.1,24.4,1.3c8-1,14.1-3.4,19.2-7c-1.3-1.1-3-2.7-4.6-4.3
	c-2.7,2.2-5.1,3.9-6.6,4.5c-9.6,3.9-22.1,4.8-22.1,4.8s16.4-3.7,22.1-6.8c1.1-0.6,2.9-2,5.1-3.9c-2.1-2-4.2-4.1-5.8-5.6
	c-1,1-1.9,1.6-3,2.4c-2.1,1.5-5.2,2.6-7.6,3.6C285.1,310.5,277.5,315.4,275.6,316.8 M315.7,316l0.6,1.7l0.8,1.8
	c0.8-0.8,1.7-2,2.4-3.5l1.7-3.4l-0.1-0.1l-1.5,1.1l-2.2,1.4l-1.6,0.9L315.7,316 M348.3,218.2c0.9-12.5,2.9-20.1,4.5-26.6
	C346.6,198.9,347.5,215.6,348.3,218.2 M349.8,190.4c2-5.9,0.3-8.9-0.8-9.5C348.9,183.6,349.6,184.9,349.8,190.4 M354.8,196.3
	c1.5-5.8,2.4-9.3,2.4-14C355.8,184,354.6,190.2,354.8,196.3 M358.7,188c0.5-1.3,1.2-2.6,1.5-4c0.5-2.1,0.5-4.8,0.2-7
	C359.5,179.1,358.5,183.7,358.7,188 M374.5,150c0.7-1,4.2-5.6,8.9-11.9l-0.9-1.2c-3.2,4.3-6.5,8.7-9.7,13c-2.3,3.2-6,8.3-6.1,8.8
	C366.7,159.7,372.7,152.4,374.5,150 M401.6,119l-1.7,2.2c1.5,2.6,3,5.4,7.2,7.6C405.4,125.4,403.6,122.2,401.6,119 M397.7,116.7
	l0.8,1.4c9.5-12.7,18.3-24.3,18.3-24.3s-3.7,2.6-9,5.1c0.5,2.9-1.3,6.5-2,7.3C405.5,106.5,402.4,110.6,397.7,116.7 M274.7,83.5
	c-0.8,0.4-1.6,1.6-1.6,2.9c-1.9,1.9-3,4.7-1.9,7.9c-10,4.1-18.9,10.5-25.6,18.8l1.4,1.9c7.1-9.1,16.6-15.6,28.1-20
	c-0.9-1.3-2.2-4.3,1.2-7.6l0,0c5,0.6,6.2,3.6,6.5,5.2c8.9-2.4,19.5-3.9,31.3-4.3c0.4-8.1,6.2-10.1,6.2-10.1s0.1-1.5,1.4-2.1h0
	c1.2,0.5,1.4,2.1,1.4,2.1s5.8,2,6.2,10.1c11.8,0.4,22.4,1.9,31.3,4.3c0.3-1.5,1.5-4.5,6.5-5.2l0,0c3.3,3.3,2.1,6.3,1.1,7.6
	c11.5,4.3,21.3,11.1,28.4,20.2l1.5-1.9c-6.7-8.2-16-14.9-25.9-19c1.1-3.2,0-6-1.9-7.9c0-1.3-0.7-2.5-1.6-2.9h0l-3.3,1.3
	c-2.9,0.4-5.7,1.9-7.3,5c-7.4-1.8-15.7-3-26.4-3.5c-0.3-4.9-3.1-7.9-6.6-9.6c-0.7-1.7-2.2-2.7-3.5-3c-1.3,0.3-2.8,1.3-3.5,3
	c-3.5,1.7-6.4,4.8-6.6,9.6c-10.6,0.6-19,1.7-26.4,3.5c-1.5-3-4.3-4.5-7.2-5L274.7,83.5 M245,117.6l0.8-1.3c-4.3-5.7-7.2-9.5-7.5-9.8
	c-0.7-0.9-2.5-4.5-2-7.3c-5.3-2.5-9-5.1-9-5.1S235.7,105.3,245,117.6 M236.1,128.9c0.8-0.5,3.5-2.2,5.2-4.6c0.9-1.2,1.5-2.3,2-3.4
	l-1.8-2.3C239.6,121.9,237.8,125.4,236.1,128.9 M221.2,198.6c1.1,1.6,4.3,5.3,26.6,18c0.3-8.1,2.4-35.7,16.3-68.7
	c-2-2.6-3.9-5.2-5.8-7.8c-1.4,1.5-3.3,2.5-6,3.3c0.1-6.2-1.2-9.5-3-13.2c-2.5,0.1-6.7,0.2-13.3-1.2
	C227.2,147.9,222.8,169.8,221.2,198.6 M300.7,330.9l0.1-0.3c0.7-1.8,4.6-11.1,4.6-11.1l-0.5,0.1c-1.8,0.3-3.6,0.6-5.3,0.7
	c-1,0.1-16.6,2.5-27.8-2.8c1.7-1.2,5.1-4,9.7-6.7l0.2-1.4c-2.6,1.4-5,1.6-6.9,1.6c-0.2-1.6,0.3-3.7,1.2-6.1c-2.5,0.5-4.3,0-4.3,0
	s1.6-5,5.1-11c2.7-4.7,6.4-9.4,9.8-13.5l-0.4-1.6l0.2-1.6c0.4-2.1,2-3.9,2.2-4l0.7-0.7l-1.3-1.1l-1.1,0.8c-1.3,0.6-2.1,0.8-2.8,0.9
	c-1.4,0-2.3-0.2-2.8-1l-0.1-0.2l-2.1-1.8l-0.1-0.5l-2.1-0.3c-1-0.9,0.4-5.2,5.1-9.7c3.3-3.2,6.5-5,9.4-6.3c2.2-1,3.6,0.9,2.5,2.3
	c-1.3,1.6-2.3,4.3-1,7.3c1.4-0.5,1.9-0.7,2.1-0.8l1.9-1.3l0.2-0.5l-2,0.2c1-2.5-0.6-8.6,0.5-12.5l-1.4,0.8
	c-0.7-3.6-0.6-9.3-0.3-12.1c0-0.8-1.2-2.1-2.6-3.6c-1.1,2-2.8,4.2-5.3,7.5c-2.3,3-6.4,5.7-8.5,15.3l0,0.1l-0.3,1.1v0l-0.4,1.2
	l-0.3,0.8l-0.5,1.2c-1.4,3.1-1.3,4.8-1.3,4.8l0,0c0.2,6.1-0.1,18.6-1.5,25.6c-1.2,6.2-3.2,9.3-3.2,9.3l-0.4-0.3
	c-0.5,2.1-1.4,5.7-3.7,8.7c0,0-1.9-4.1-5.4-35.4c-3.9-34.5-5.8-70.4-5.8-70.4c-0.4-6.4,0.9-13.8,2.7-19.3c3-8.8,8.6-17.1,11.9-20.6
	c0.9-0.9,2-1.7,3.2-2.1l1.1-0.2h0c-2.4-3.2-4.9-6.5-7.3-9.7c-15.2,37.5-15.4,67.3-15.4,67.6l-0.1,3.6l-3-1.7
	c-17-9.4-22.5-13.4-26.8-17.2c-0.2,3.7-0.5,15.9-0.5,15.9c0,0.2,0,2.9,0,7.6c0,14.6,2.6,50.5,14.5,75.1c1.7,3.1,6.1,11.3,14.2,18.8
	c6.1,5.7,13.2,9.8,21.1,12.4l1.8,0.6C281.1,336.3,291,335.7,300.7,330.9 M300.1,341c1.8-1.5,4.6-2.6,8.2-1.2
	c0.3-5.7,1.3-13.6,2.4-19.2l-1.2,0.9l-0.9,0.6l-0.1,0l-0.1,0l-0.4-0.5C306.7,324.6,300.1,340.9,300.1,341 M334.6,344.1
	c0.2-5.1-2.2-20-3.2-26.1l0,0l-1.1-0.4l-1,2.5c-0.7,1.5-1.9,3.2-2.1,3.2c-0.2,0-3.3-2.1-5.3-6.2c-2,4.1-5,6.1-5.2,6.1
	c-0.3,0-1.4-1.6-2.2-3.2l-1.1-2.6l-0.1,0.2c-1,6.3-3.2,21.5-3,26.5c-6.7-4.4-10.8,0-9.4,3.1l0.4,0.7c0.8,1.1,1.9,1.7,3.4,1.8
	c2.2,0.1,5.1,0.4,8.3,1.9c3,1.4,6.2,3.7,9.5,7.8c3.3-4.1,6.5-6.4,9.5-7.8c3.3-1.5,6.1-1.8,8.3-1.9c1.5-0.1,2.5-0.8,3.3-1.8l0.5-0.7
	C345.5,344.1,341.4,339.7,334.6,344.1 M345,341c0-0.1-7.1-17.4-7.9-19.3l0,0l-0.3,0.4l-0.1,0l-0.1,0c-0.3-0.2-1.4-0.8-2.6-1.9
	c1.3,5,2.5,13.1,2.8,19.6C340.4,338.4,343.2,339.5,345,341 M422.9,219.2c-0.1-4.9-0.4-12.2-0.5-15.9c-4.4,3.8-9.8,7.8-26.9,17.2
	l-3,1.7l-0.1-3.6c0-0.3-0.2-29.9-15.2-67.2c-2.3,3.1-4.7,6.2-7,9.4l0.1,0.1l0.6,0.2c1.2,0.4,2.1,1.1,3,2c3.4,3.5,8.8,11.9,11.9,20.6
	c1.7,5.4,3.1,12.9,2.7,19.3h0c0,0-2,36-5.8,70.4c-3.5,31.3-5.4,35.4-5.4,35.4c-2.2-2.9-3.2-6.5-3.7-8.6l-0.3,0.3
	c0,0-2.1-3.1-3.3-9.3c-1.4-7-1.6-19.6-1.5-25.6v0c0,0,0.1-1.8-1.3-4.8c-0.7-1.4-1.2-2.9-1.5-4.4l0-0.1c-2.1-9.6-6.3-12.4-8.5-15.3
	c-2.9-3.8-4.6-6-5.7-8.2c-1.7,1.6-3,3.2-3,4.1c0.6,5.8,1.1,9.9,0.2,12.9l-1.2-1c0.4,3.9-1.4,8.3-0.3,11.8l-2.3-0.3l0.3,0.6l1.1,1
	l0.8,0.4c0.2,0.1,0.8,0.3,2.3,0.8c1.3-2.9,0.3-5.7-1-7.2c-1.1-1.3,0.2-3.2,2.5-2.2c2.9,1.3,6,3.1,9.3,6.2c4.7,4.5,6.1,8.8,5.1,9.7
	l-2.3,0.2l-0.1,0.5l-2,1.8l-0.1,0.2c-0.5,0.7-1.3,1-2.8,1c-1.2,0-2.6-0.7-2.8-0.9l-0.9-0.7l-1.3,1.1l0.5,0.6c0.3,0.3,1.8,2,2.2,4
	l0.1,0.9c3.9,4.7,8.5,10.4,11.8,16c3.5,6,5.1,10.9,5.1,10.9s-1.9,0.6-4.3,0c0.9,2.4,1.3,4.5,1.2,6.1c-1.9,0.1-4.4-0.1-7-1.5l0.4,2.4
	c3.5,2.3,6.1,4.4,7.5,5.4c-11.3,5.3-27.6,2.9-27.9,2.8l-2.5-0.4l-0.5-0.1c0,0,4,9.6,4.7,11.1c7.2,3.3,13.8,5.4,24.1,3.7
	c0,0,1.7-0.2,6.1-1.6c4.5-1.5,12.9-6.4,19.3-12.5c8.1-7.5,12.9-15.5,14.5-18.6c12.4-24.4,14.5-60.5,14.5-75.1
	C422.9,222,422.9,219.4,422.9,219.2 M333.3,209.2c0-0.1,5-4.8,4.8-10.9c-1.4,4.1-4.8,5.8-4.8,5.8c0,0-1.9-1.2-2.7-3.8
	C329.9,206.4,333.3,209.2,333.3,209.2 M323.2,169.7c-3,3.2-1.2,5.9-1.2,5.9S325.7,171.7,323.2,169.7 M322.1,180.8
	c-3.3,5,0,10.2,0,10.2C322.1,190.9,324.4,184,322.1,180.8 M314.1,173.6c-4.9,3.7-2.6,7.1-1.7,9C313.4,179,313.8,178,314.1,173.6
	 M315.3,219c-0.6-0.2-3.6-2.9-4.5-4.6c0.5,2.7,4.2,8.1,6,9.2c0.6-1,2.8-5.4,0.9-12.3C316.9,215.5,316.1,217.6,315.3,219
	 M311.7,184.8c-3.3,4.1,1.8,9.2,1.8,9.3C313.4,194.1,313.9,186.3,311.7,184.8 M317,206.6c0.8-1.8,3.2-5.3,2-11.1
	c-0.4,4.4-3.2,6.3-3.2,6.3c0,0-1.6-0.9-2.8-3.5C313.3,203.6,315.3,205.1,317,206.6 M314.4,234.1c-0.5-1.6-1.3-6.9-3.3-9.2
	C310.3,228.8,312.8,232.4,314.4,234.1 M375.6,106.7c-1.5-0.4-3-0.8-3.5-1.6l2,0.6l0.9-0.8c-1.5-1.3-4-0.5-4.5,0.8l1.4,0.8l-1.9,0.9
	C372.4,107.2,374.6,107.8,375.6,106.7 M371.5,108.7c-1.7,0.8-2,1.3-2.9,3.1c-1,2.3-1.8,4.5-2.9,6.5l2.2-0.7c2.9-1.8,5-6.8,6.2-9.7
	L371.5,108.7 M366.3,110.5c-0.5,1.6-1.7,2.6-2.4,3.6c-4.1-1.6-13.2-3.9-18.2-4.4c-1.3,1.5-3.4,3.5-5.5,4c-3.1-0.4-5.1-1.2-7.3-2.1
	c1.2,0.1,1.6,0.1,2.4,0c3.1-0.1,5.8-1.1,7.8-2.3c-4.3-0.7-5.4-1.8-3.3-4.6c1-1.2,2.5-3.5,4.9-2.9c1.8,0.5,2.3,3,2,5
	c5.1,0.6,11.5,2.3,16.5,4.1c0.3-1.4-0.6-2.1-1.2-3.1l2.7-2.3C366,106.1,366.8,109,366.3,110.5 M342.4,104.1l-1.3,1.4
	c0.4,0.6,1.2,0.9,2.3,1l0.6,0.1C344.5,105.3,343.4,103.7,342.4,104.1 M349.1,111.3l-2.7,1.5l2.1,2.1c1.1-0.6,1.6-0.9,2.8-1.5
	L349.1,111.3 M330,95.8l-2.5-1.8l-2.4,1.9l2.4,1.8C328.4,96.9,328.8,96.6,330,95.8 M288.2,114.4l2.8,1.2l2-2.3
	c-1.1-0.5-1.8-0.8-2.9-1.2L288.2,114.4 M333.9,107.9c-12-0.7-35.5,0.6-47,3.8l-2.3-4.1c-3.1-3.3-4.3,0.3-4.3,0.7
	c3.9,0.2,4.5,2.2,4.5,2.2c-0.9,1.7-1.6,2.2-3.7,3.7c-0.7,0.5-3.2,2-6.6,2.3c-7.3,0.4-5.3-7.2-0.9-10.3c-0.6,0.7-3.1,4.7-1.5,6.7
	c1.8,2.3,8.5,0.4,10.1-1.6c-0.9-0.8-2.5-1.1-4.9-0.9c0.1-1.2,0.6-4.3,4.1-7.2c1.3,0.3,4.8,2.2,6.1,5.2c10.6-2.9,30-3.7,31-3.7
	c-0.2-1.8-0.9-8.8-0.9-9.2c-0.1-1.1,0.7-1.7,1.4-2.1c0.8,1.4,1.6,2.1,3.4,2.7l-2.2,1.8c0.1,1.4,0.2,3.9,0.3,4.9
	c1.7-0.7,4.2-1.8,7.1-2.5l3.2-0.3l2.8,1.2l1.2,2.2C334.6,105.2,334.3,106.7,333.9,107.9 M331.4,103.3c-1.5-2.4-7.1-0.2-10.6,1.2
	c2,0,3.8-0.1,6,0c0.9,0,3.2,0,4.7,0.1L331.4,103.3 M281.3,116.3l-2.2-0.6l-1.5,2.5c1.1,0.3,1.8,0.6,3,0.9l1.1-1.7l2.1,0.7l1.6-2.5
	c-1.1-0.4-1.9-0.6-3.1-0.9L281.3,116.3"/>
</svg>
